<svg xmlns="http://www.w3.org/2000/svg" width="62" height="62" viewBox="0 0 287.88 288"><g transform="translate(41.162729,60.364775)"><g transform="translate(-9.6217034,0.53453909)"><path fill="#ffffff" d="m 103.85997,306.24137 c 0,-0.0874 -0.38929,-0.27383 -0.86508,-0.41432 -0.47579,-0.14048 -1.15161,-0.54923 -1.50182,-0.9083 -0.76049,-0.77974 -1.868566,-3.04436 -1.938462,-3.96166 -0.02746,-0.36031 -0.104761,-0.6551 -0.171793,-0.6551 -0.252099,0 -0.647544,-4.83871 -0.53161,-6.50484 0.305396,-4.38895 0.64006,-5.94294 1.747245,-8.11322 0.24617,-0.48253 0.6149,-0.9211 0.81938,-0.97456 0.20448,-0.0535 0.4119,-0.24885 0.46093,-0.43418 0.0556,-0.21033 0.57181,-0.4789 1.37374,-0.71476 1.08446,-0.31896 1.41081,-0.34002 2.09455,-0.13516 2.65591,0.79573 4.05642,3.3582 4.4466,8.13584 0.23345,2.85853 0.0545,7.90448 -0.32447,9.14743 -0.83036,2.7237 -2.43241,4.94457 -3.75806,5.2097 -0.34732,0.0695 -0.6315,0.20635 -0.6315,0.30417 0,0.0978 -0.27442,0.17786 -0.60983,0.17786 -0.3354,0 -0.60982,-0.0715 -0.60982,-0.1589 z m 1.95794,-3.20963 c 0.37655,-0.39927 0.68465,-0.88409 0.68465,-1.07736 0,-0.19328 0.083,-0.43833 0.18453,-0.54454 0.32262,-0.3376 0.46838,-2.30767 0.49557,-6.69795 0.0283,-4.57678 -0.0922,-5.81062 -0.69953,-7.16302 -0.53967,-1.20163 -0.98072,-1.65802 -1.73993,-1.80046 -0.94547,-0.17736 -1.9858,0.66104 -2.37653,1.91527 -0.65874,2.11454 -0.77163,3.38107 -0.68255,7.65804 0.0979,4.7021 0.23325,5.68159 0.96923,7.01579 0.87248,1.58163 2.07817,1.84614 3.16456,0.69423 z m 11.15337,3.16526 c -0.0691,-0.11181 -0.30443,-0.20328 -0.52295,-0.20328 -0.80925,0 -2.77434,-1.43086 -2.9553,-2.15188 -0.0677,-0.26989 -0.20042,-0.49071 -0.29484,-0.49071 -0.48341,0 -0.59514,-1.99237 -0.59622,-10.63132 l -10e-4,-9.10675 1.16884,0.061 1.16884,0.061 0.10164,8.94415 c 0.0559,4.91929 0.18365,9.1271 0.28389,9.35071 0.10024,0.2236 0.41465,0.6581 0.69868,0.96556 0.4244,0.45938 0.68906,0.55901 1.48521,0.55901 0.53283,0 1.17891,-0.0958 1.43572,-0.2129 0.55024,-0.25088 0.97513,-1.06148 0.97513,-1.8604 0,-0.3131 0.0915,-0.56929 0.20327,-0.56929 0.13233,0 0.20328,-3.01865 0.20328,-8.64938 v -8.64938 l 1.16884,0.061 1.16883,0.061 0.0578,8.63924 c 0.0552,8.24726 0.0388,8.7003 -0.36173,9.98527 -0.23077,0.74033 -0.59982,1.50916 -0.82012,1.70853 -0.22031,0.19938 -0.40056,0.47486 -0.40056,0.61221 0,0.13733 -0.16008,0.30481 -0.35573,0.3722 -0.19565,0.0674 -0.66348,0.31071 -1.0396,0.54073 -0.37613,0.23003 -0.87924,0.39139 -1.11802,0.35858 -0.26202,-0.036 -0.414,0.0411 -0.38333,0.19444 0.0613,0.30656 -1.0841,0.35238 -1.27048,0.0508 z m 39.81909,-0.11494 c 0.0932,-0.24283 0.0279,-0.2883 -0.27548,-0.19201 -0.21868,0.0694 -0.60687,0.0205 -0.86265,-0.10881 -0.55564,-0.28079 -2.07383,-1.90245 -2.34832,-2.50835 -0.68252,-1.5066 -0.86096,-2.0311 -0.86096,-2.53059 0,-0.30926 -0.0915,-0.65375 -0.20329,-0.76557 -0.12353,-0.12354 -0.20637,-2.07753 -0.21115,-4.98076 -0.008,-4.73103 0.0386,-5.1824 0.78319,-7.61389 0.69089,-2.25632 2.79298,-4.14636 4.61152,-4.14636 1.545,0 3.32041,1.33359 4.14393,3.1127 1.09527,2.3662 1.32498,3.85375 1.32285,8.56675 -0.002,3.43167 -0.27863,5.84289 -0.78899,6.86594 -0.16904,0.33886 -0.31343,0.76212 -0.32085,0.9406 -0.0177,0.42578 -1.20422,2.05103 -1.70602,2.33686 -0.21598,0.12302 -0.57501,0.38376 -0.79785,0.57942 -0.22284,0.19565 -0.56546,0.35573 -0.76138,0.35573 -0.19593,0 -0.41276,0.0915 -0.48186,0.20328 -0.0691,0.1118 -0.40444,0.20327 -0.74521,0.20327 -0.47873,0 -0.59182,-0.0723 -0.49748,-0.31821 z m 1.26371,-2.53564 c 0.78164,-0.29719 1.02342,-0.68067 1.60361,-2.54345 0.48109,-1.54464 0.50977,-1.8961 0.50977,-6.24784 0,-4.7219 -0.115,-5.70791 -0.8744,-7.49713 -0.46931,-1.10574 -1.39139,-1.73055 -2.2397,-1.51762 -0.66119,0.16594 -1.53707,1.0783 -1.68506,1.75521 -0.0611,0.27951 -0.18833,0.69114 -0.28272,0.91474 -0.7308,1.73116 -0.65334,10.64285 0.11395,13.11131 0.27231,0.87604 1.12567,2.00591 1.58239,2.09511 0.24092,0.0471 0.50069,0.098 0.57726,0.11325 0.0766,0.0152 0.38928,-0.0674 0.6949,-0.18358 z m 11.87063,2.69495 c 0,-0.0874 -0.4079,-0.27934 -0.90644,-0.42653 -0.49854,-0.1472 -1.01285,-0.39586 -1.1429,-0.55257 -0.13006,-0.1567 -0.33962,-0.28688 -0.46568,-0.28928 -0.33225,-0.006 -1.36033,-1.53022 -1.61965,-2.40081 -0.14563,-0.4889 -0.22445,-3.86006 -0.22893,-9.79141 l -0.007,-9.04579 1.16884,-0.061 1.16883,-0.061 v 8.28769 c 0,8.94116 0.0953,9.97484 1.02142,11.08422 0.45339,0.54309 0.64175,0.61635 1.58494,0.61635 1.24432,0 1.73023,-0.33317 2.29201,-1.57148 0.33701,-0.74286 0.37,-1.55741 0.38185,-9.42742 0.007,-4.73788 0.0623,-8.69414 0.12262,-8.7917 0.0603,-0.0976 0.60733,-0.17738 1.21563,-0.17738 h 1.10603 v 9.23708 c 0,5.93877 -0.0726,9.28191 -0.20328,9.36269 -0.1118,0.0691 -0.20328,0.30319 -0.20328,0.52018 0,0.21741 -0.13865,0.39456 -0.30879,0.39456 -0.22291,0 -0.27532,0.13331 -0.18846,0.47939 0.0979,0.38992 -0.0421,0.60802 -0.74986,1.16884 -1.0547,0.83565 -1.72564,1.19764 -2.21982,1.19764 -0.20422,0 -0.42785,0.0915 -0.49695,0.20328 -0.1473,0.23834 -1.3213,0.27775 -1.3213,0.0444 z M 57.208091,306.05812 c -0.223604,-0.0469 -0.589501,-0.16289 -0.813105,-0.25763 -0.223603,-0.0948 -0.726712,-0.29329 -1.118018,-0.44117 -1.495186,-0.56509 -3.05853,-2.73828 -3.680384,-5.11606 -0.503877,-1.92669 -0.666134,-4.99531 -0.410709,-7.7674 0.264669,-2.87244 0.402104,-3.53884 0.865897,-4.19855 0.208632,-0.29676 0.37933,-0.68874 0.37933,-0.87108 0,-0.72553 1.927303,-2.95978 2.55318,-2.95978 0.174173,0 0.2647,-0.0841 0.201173,-0.18689 -0.152088,-0.24609 0.975691,-0.59054 2.124274,-0.6488 2.87316,-0.14577 3.455694,0.17045 3.455694,1.87577 0,0.9866 -0.02352,1.03254 -0.457371,0.89326 -0.871117,-0.27965 -3.195456,-0.36202 -3.48295,-0.12341 -0.152321,0.12642 -0.438235,0.16795 -0.635364,0.0923 -0.246242,-0.0945 -0.330453,-0.0537 -0.269068,0.1305 0.04914,0.14744 -0.214877,0.59651 -0.58671,0.99796 -0.371833,0.40145 -0.732331,0.95859 -0.801107,1.2381 -0.06878,0.2795 -0.193621,0.59966 -0.277431,0.71146 -0.463344,0.61811 -0.765457,7.33012 -0.407156,9.04579 0.515729,2.46948 1.367302,4.09445 2.480554,4.73337 0.648595,0.37224 2.301316,0.4756 2.498674,0.15628 0.162859,-0.26351 0.173267,-6.65307 0.01126,-6.91519 -0.07155,-0.11577 -0.627802,-0.21049 -1.236114,-0.21049 h -1.10602 v -1.21966 -1.21966 h 2.439314 2.439314 v 5.64211 5.64212 l -0.55901,0.24291 c -1.433924,0.62314 -2.806099,0.90222 -3.608151,0.73383 z m 2.744228,-20.59529 c 0,-0.1118 -0.09687,-0.20328 -0.215274,-0.20328 -0.1184,0 -0.158738,0.0915 -0.08964,0.20328 0.0691,0.1118 0.165971,0.20328 0.215273,0.20328 0.0493,0 0.08964,-0.0915 0.08964,-0.20328 z m 120.847671,20.60775 c -0.45973,-0.1127 -1.35699,-0.42562 -2.18522,-0.7621 -0.5247,-0.21318 -0.55901,-0.3039 -0.55901,-1.47859 v -1.25149 l 1.44241,0.488 c 1.66196,0.56228 2.30297,0.60164 3.25894,0.20005 0.88945,-0.37367 1.39693,-1.26127 1.39693,-2.44334 0,-1.50392 -0.74895,-2.901 -2.69341,-5.0242 -0.70414,-0.76887 -0.85038,-1.03719 -0.78635,-1.44275 0.0132,-0.0838 -0.0979,-0.15246 -0.24706,-0.15246 -0.32339,0 -1.60556,-1.81127 -2.07047,-2.9249 -0.43091,-1.03215 -0.44536,-4.01218 -0.0242,-5.00287 0.38315,-0.90138 1.61791,-2.0612 2.67076,-2.50865 0.60308,-0.25629 1.20691,-0.32377 2.33768,-0.26131 2.11141,0.11664 2.58266,0.3658 2.68918,1.4218 0.0466,0.46198 0.006,0.89303 -0.0895,0.95785 -0.0958,0.0648 -0.11583,0.26997 -0.0445,0.45583 0.1194,0.31118 0.0616,0.3139 -0.73015,0.0346 -0.4729,-0.16685 -1.41769,-0.30337 -2.09956,-0.30337 -1.17243,0 -1.27592,0.0406 -1.90557,0.7484 -1.23378,1.38679 -0.87813,2.90496 1.31115,5.5969 0.70151,0.86257 1.27546,1.66837 1.27546,1.79066 0,0.12229 0.0686,0.18053 0.15246,0.12943 0.22437,-0.13677 1.33642,1.40043 2.10862,2.9148 0.48266,0.94651 0.66553,1.56703 0.64469,2.18767 -0.0185,0.54946 0.0476,0.819 0.18053,0.73686 0.13453,-0.0831 0.16789,0.0798 0.0932,0.45491 -0.064,0.32144 -0.17565,0.92849 -0.24805,1.34896 -0.0724,0.4205 -0.21273,0.81467 -0.31187,0.87594 -0.0991,0.0612 -0.18023,0.28894 -0.18023,0.50593 0,0.21702 -0.0865,0.39456 -0.19217,0.39456 -0.10571,0 -0.31152,0.24745 -0.45737,0.5499 -0.14585,0.30246 -0.6311,0.72505 -1.0783,0.93912 -0.44721,0.21407 -0.97518,0.47174 -1.17329,0.57261 -0.45465,0.23151 -1.94975,0.38265 -2.48568,0.25127 z m -142.161329,-0.223 c -0.403808,-0.0767 -0.45715,-0.17479 -0.344249,-0.63298 0.07348,-0.29818 0.217154,-0.99955 0.31927,-1.55856 0.102116,-0.55901 0.377726,-1.88538 0.612467,-2.9475 0.234739,-1.06212 0.471375,-2.29702 0.525853,-2.74423 0.05448,-0.44721 0.180143,-0.99605 0.279255,-1.21965 0.09911,-0.22361 0.231131,-0.79532 0.293376,-1.27048 0.281755,-2.15076 0.369749,-2.60411 0.54055,-2.78488 0.100349,-0.10622 0.182454,-0.67793 0.182454,-1.27048 0,-0.59255 0.09147,-1.07736 0.203277,-1.07736 0.111801,0 0.203276,-0.36159 0.203276,-0.80353 0,-0.44197 0.08109,-1.01368 0.180206,-1.27048 0.162208,-0.42031 0.510276,-2.08708 0.776708,-3.71936 0.131597,-0.80622 0.33628,-0.90796 1.83426,-0.91164 1.148998,-0.003 1.276072,0.0394 1.368587,0.45427 0.05609,0.25155 0.240781,1.08049 0.410425,1.8421 0.169642,0.7616 0.308441,1.64807 0.308441,1.96993 0,0.32187 0.07965,0.63445 0.177007,0.69462 0.09735,0.0602 0.230661,0.54581 0.29624,1.07919 0.06558,0.5334 0.216996,1.38145 0.336479,1.88455 0.240407,1.01228 0.576424,2.91486 0.735968,4.16716 0.05697,0.44721 0.182578,0.99606 0.279122,1.21966 0.16754,0.38806 0.23602,0.72423 0.621076,3.04914 0.09258,0.55901 0.267706,1.42802 0.389162,1.93113 0.121455,0.50311 0.302619,1.37211 0.402586,1.93112 0.09997,0.55901 0.243877,1.21281 0.3198,1.4529 0.1274,0.40287 0.05436,0.4433 -0.947413,0.52433 -1.295157,0.10474 -1.738125,-0.20306 -1.821547,-1.26576 -0.03072,-0.39131 -0.11675,-0.80294 -0.191183,-0.91475 -0.07443,-0.1118 -0.196615,-0.74862 -0.271512,-1.41516 -0.0749,-0.66653 -0.247446,-1.28257 -0.383438,-1.36901 -0.36866,-0.23425 -3.973725,-0.19592 -4.427785,0.0471 -0.272592,0.14589 -0.393189,0.42645 -0.393189,0.91474 0,0.38737 -0.09147,0.70432 -0.203276,0.70432 -0.111802,0 -0.203277,0.44371 -0.203277,0.98605 0,2.1298 -0.564166,2.67395 -2.408976,2.3235 z m 7.033509,-7.62155 c 0.294226,-0.243 0.339865,-1.20819 0.07053,-1.49154 -0.100961,-0.10621 -0.234788,-0.60474 -0.297389,-1.10785 -0.0626,-0.50311 -0.204841,-1.46359 -0.31609,-2.1344 -0.111249,-0.67081 -0.288089,-1.76851 -0.392977,-2.43932 -0.104891,-0.67081 -0.255728,-1.37973 -0.335195,-1.57539 -0.250851,-0.61761 -0.685737,-0.39915 -0.809299,0.40656 -0.0643,0.41925 -0.205652,1.04319 -0.314125,1.38654 -0.108472,0.34334 -0.197222,0.91375 -0.197222,1.26755 0,0.35382 -0.09349,1.0334 -0.207765,1.51014 -0.571179,2.38309 -0.781865,3.90656 -0.574759,4.15612 0.260694,0.3141 2.998876,0.33163 3.374295,0.0216 z m 19.106213,7.60155 -0.560753,-0.0645 0.05256,-11.01407 0.05256,-11.01405 1.098779,-0.0625 c 0.740102,-0.0421 1.155047,0.0242 1.27115,0.20328 0.212267,0.32734 0.202764,20.64818 -0.01002,21.44384 -0.158958,0.59436 -0.45854,0.67429 -1.904273,0.50801 z m 6.150848,-0.0179 -0.914743,-0.12086 V 294.71191 283.735 l 2.320539,-0.0578 c 1.406572,-0.035 2.403349,0.025 2.530788,0.15246 0.115636,0.11564 0.512114,0.21025 0.88106,0.21025 0.368946,0 0.670812,0.0915 0.670812,0.20327 0,0.11181 0.145958,0.20328 0.324353,0.20328 0.607123,0 1.505132,0.81144 1.505132,1.36002 0,0.43851 0.04741,0.47989 0.304914,0.26619 0.247987,-0.20582 0.304914,-0.19612 0.304914,0.0519 0,0.16771 0.127204,0.4105 0.282676,0.53952 0.444067,0.36854 0.992378,3.04268 0.881422,4.29872 -0.192584,2.1801 -0.674294,3.36623 -1.936417,4.76809 -0.145271,0.16136 -0.416092,0.37842 -0.601821,0.48235 -0.239689,0.13414 -0.322549,0.41387 -0.285508,0.96385 0.0287,0.42617 0.119551,0.82339 0.201888,0.88271 0.08234,0.0593 0.370418,0.82242 0.640182,1.69579 0.269763,0.87336 0.564077,1.63343 0.654028,1.68902 0.08995,0.0556 0.16355,0.37011 0.16355,0.69891 0,0.32882 0.09147,0.59783 0.203276,0.59783 0.111802,0 0.203277,0.13845 0.203277,0.30768 0,0.16921 0.08378,0.4665 0.186186,0.66065 0.527669,1.00034 0.836705,1.90583 0.716717,2.09996 -0.0809,0.13091 -0.551892,0.17948 -1.179442,0.12164 -1.289387,-0.11885 -1.686263,-0.27446 -1.82068,-0.71386 -0.05748,-0.18791 -0.42018,-1.21067 -0.805988,-2.27279 -0.38581,-1.06212 -0.950639,-2.61718 -1.255177,-3.4557 -0.647589,-1.78307 -0.767069,-1.95545 -1.445117,-2.08508 -0.351974,-0.0673 -0.569717,0.0159 -0.705258,0.26906 -0.107842,0.2015 -0.196078,2.11039 -0.196078,4.24198 0,2.21807 -0.07983,3.8756 -0.18665,3.8756 -0.102659,0 -0.308476,0.0315 -0.457372,0.07 -0.148897,0.0385 -0.682355,0.0157 -1.185463,-0.0508 z m 3.540708,-10.82508 c 1.166041,-0.27593 1.854917,-0.74891 2.335139,-1.60336 0.617679,-1.09901 0.621297,-4.51452 0.0059,-5.55757 -0.597378,-1.01248 -2.002766,-1.79056 -3.091602,-1.71163 l -0.859017,0.0623 -0.05757,4.16716 c -0.06393,4.62764 -0.0044,5.19358 0.523452,4.97524 0.190972,-0.079 0.705639,-0.22846 1.143703,-0.33211 z m 13.534488,10.82722 -0.508191,-0.14136 v -10.96774 -10.96775 l 1.829486,-0.0651 c 2.891068,-0.1029 4.639147,0.45453 6.113611,1.94948 1.920884,1.94761 2.308241,6.04643 0.878499,9.29584 -0.545102,1.23887 -2.670486,2.9475 -3.666421,2.9475 -0.319804,0 -0.581461,0.0915 -0.581461,0.20328 0,0.1118 -0.408417,0.20328 -0.907592,0.20328 -1.29297,0 -1.360259,0.21358 -1.296737,4.11614 l 0.05354,3.28898 -0.499994,0.13943 c -0.624455,0.17413 -0.782557,0.1739 -1.414737,-0.002 z m 4.575636,-10.34613 c 0.132223,-0.0792 0.535568,-0.48379 0.896318,-0.89913 0.555698,-0.63977 0.701825,-1.04037 0.956422,-2.62204 0.21008,-1.30509 0.236215,-1.93118 0.08685,-2.08055 -0.117516,-0.11751 -0.213664,-0.42859 -0.213664,-0.6913 0,-1.52272 -1.659018,-3.10002 -3.260618,-3.10002 -1.269244,0 -1.22417,-0.17972 -1.203564,4.79866 0.01779,4.29656 0.04114,4.56332 0.422906,4.83073 0.396901,0.278 1.674182,0.14762 2.315352,-0.23635 z m 33.282757,10.36627 c -0.20149,-0.13337 -0.24469,-2.4997 -0.20327,-11.13317 l 0.0526,-10.96382 2.43932,0.0298 c 2.69689,0.033 4.22438,0.22131 4.05239,0.4996 -0.0619,0.10011 0.054,0.18203 0.25745,0.18203 0.44426,0 1.65117,1.05486 2.30514,2.01475 0.43395,0.63695 0.5629,1.09684 0.93631,3.33934 0.17416,1.0459 -0.30672,3.48826 -0.89351,4.53816 -0.26107,0.46709 -0.84289,1.18193 -1.29294,1.58852 -0.72856,0.65821 -0.80281,0.80969 -0.67722,1.38151 0.0776,0.35323 0.21727,0.78245 0.31041,0.95383 0.18385,0.33825 1.69377,4.48047 1.91971,5.2664 0.0895,0.31117 0.0408,0.55148 -0.13706,0.67613 -0.22425,0.1572 -0.21945,0.17801 0.0256,0.11128 0.29935,-0.0815 0.81654,0.66243 0.81654,1.17453 0,0.34148 -1.34765,0.5577 -2.12524,0.34097 -0.46598,-0.12987 -0.67502,-0.3698 -0.93224,-1.06998 -0.49684,-1.35246 -0.61678,-1.6712 -0.8213,-2.18262 -0.10271,-0.2568 -0.18674,-0.69671 -0.18674,-0.97755 0,-0.28085 -0.0761,-0.46362 -0.16903,-0.40615 -0.093,0.0575 -0.29403,-0.35458 -0.44681,-0.91564 -0.15277,-0.56104 -0.35113,-1.06543 -0.4408,-1.12084 -0.0897,-0.0554 -0.16302,-0.27831 -0.16302,-0.4953 0,-0.89474 -1.54507,-1.70976 -1.96539,-1.03673 -0.13662,0.21876 -0.2362,1.66117 -0.25417,3.68169 -0.0163,1.82711 -0.0802,3.404 -0.14215,3.5042 -0.0619,0.10021 -0.009,0.30725 0.11804,0.46012 0.12686,0.15284 0.1576,0.32133 0.0683,0.37439 -0.34493,0.20504 -2.20804,0.3453 -2.45097,0.18451 z m 3.30503,-10.61189 c 0.0691,-0.1118 0.44914,-0.20327 0.84454,-0.20327 0.91336,0 1.75681,-0.59855 2.40709,-1.70817 0.44114,-0.75273 0.50897,-1.11247 0.50897,-2.69898 0,-2.17489 -0.50155,-3.41071 -1.59747,-3.93608 -0.36004,-0.1726 -0.59954,-0.3689 -0.53221,-0.43623 0.0673,-0.0673 -0.45504,-0.10906 -1.16081,-0.0927 l -1.28322,0.0297 -0.0381,4.06552 c -0.0231,2.46869 0.0465,4.28508 0.17712,4.62453 0.22351,0.58062 0.45844,0.7046 0.67406,0.35573 z m 16.21127,10.64517 c -0.19822,-0.0848 -0.2541,-2.24783 -0.2541,-9.837 0,-7.16396 -0.0622,-9.76677 -0.23593,-9.87414 -0.12976,-0.0802 -0.75827,-0.12697 -1.39669,-0.10391 -1.29499,0.0467 -1.34826,-0.0136 -1.32667,-1.50211 l 0.0118,-0.81311 h 4.2688 4.2688 l 0.0632,0.99673 c 0.0753,1.18762 -0.0851,1.33237 -1.48616,1.34095 -0.55901,0.003 -1.12813,0.0772 -1.26472,0.164 -0.18933,0.1203 -0.2525,2.39006 -0.26583,9.5513 -0.01,5.16642 0.035,9.47846 0.0992,9.58231 0.0642,0.10384 0.0466,0.23039 -0.0391,0.28125 -0.27034,0.16043 -2.17714,0.32728 -2.44263,0.21373 z m -26.78163,-32.33282 c -2.02818,-0.2643 -3.80875,-2.6287 -4.41019,-5.85626 -0.35079,-1.88242 -0.34723,-9.34987 0.005,-10.87528 0.14206,-0.61491 0.30981,-1.36957 0.37278,-1.67702 0.063,-0.30746 0.19557,-0.55901 0.29469,-0.55901 0.0991,0 0.1802,-0.18295 0.1802,-0.40656 0,-0.2236 0.0915,-0.40655 0.20328,-0.40655 0.1118,0 0.20616,-0.16008 0.2097,-0.35573 0.007,-0.41182 0.88327,-1.47375 1.21548,-1.47375 0.12376,0 0.16849,-0.0915 0.0994,-0.20328 -0.0713,-0.1153 0.0995,-0.20328 0.39455,-0.20328 0.28611,0 0.52019,-0.0823 0.52019,-0.183 0,-0.31421 2.03057,-0.71361 2.29313,-0.45103 0.12512,0.12511 0.41715,0.22748 0.64896,0.22748 0.62065,0 2.45962,1.7907 2.92259,2.84587 0.5416,1.23437 0.82526,2.20185 0.88365,3.01377 0.0267,0.37185 0.1201,0.72029 0.20748,0.77428 0.25334,0.15658 0.16034,8.16782 -0.11134,9.59073 -0.13482,0.70612 -0.31213,1.21685 -0.39402,1.13495 -0.0819,-0.0819 -0.14889,0.14654 -0.14889,0.50762 0,0.92985 -0.97325,2.80141 -1.82182,3.50339 -0.6085,0.50339 -2.46181,1.26216 -2.8396,1.16259 -0.0636,-0.0167 -0.38999,-0.0662 -0.7254,-0.10993 z m 1.87593,-2.85794 c 0.99782,-0.96217 1.35273,-2.1233 1.6931,-5.53927 0.12811,-1.28573 0.17962,-2.93226 0.11446,-3.65897 -0.0652,-0.72672 -0.17965,-2.17053 -0.25444,-3.20845 -0.0748,-1.03793 -0.21372,-1.93519 -0.30876,-1.99394 -0.095,-0.0587 -0.17279,-0.28798 -0.17279,-0.50945 0,-1.24929 -1.53881,-2.80293 -2.51203,-2.53624 -0.63686,0.17454 -1.43148,0.94831 -1.68861,1.64433 -0.72596,1.96505 -0.77956,2.47332 -0.77156,7.31521 0.008,4.99692 0.10261,5.78534 0.90136,7.53264 0.41488,0.90759 0.71385,1.21543 1.32661,1.36606 0.8267,0.20319 1.10609,0.13441 1.67266,-0.41192 z m 11.0321,2.8517 c -0.39131,-0.0471 -0.79837,-0.17059 -0.90458,-0.27442 -0.10621,-0.10384 -0.33982,-0.18878 -0.51913,-0.18878 -0.43349,0 -1.62543,-1.24568 -1.62543,-1.6987 0,-0.19694 -0.0779,-0.30992 -0.17309,-0.25109 -0.0952,0.0589 -0.27065,-0.23305 -0.38987,-0.64863 -0.62421,-2.17587 -0.67837,-3.1517 -0.61733,-11.12272 l 0.0623,-8.13105 h 1.3213 1.32129 l 0.10164,9.14743 c 0.10556,9.50009 0.11009,9.5469 1.0026,10.35462 0.60841,0.55059 2.25376,0.56015 2.85479,0.0167 0.99542,-0.90025 1.02124,-1.17071 1.02124,-10.70095 v -8.91933 h 1.33595 1.33595 l -0.0678,9.19825 c -0.0629,8.53687 -0.0952,9.24941 -0.44966,9.90971 -0.21003,0.39131 -0.53932,1.03163 -0.73175,1.42293 -0.62532,1.2716 -2.84716,2.13062 -4.8784,1.88614 z M -2.4534574,273.05445 c -0.6149103,-0.21261 -1.1408874,-0.38915 -1.1688378,-0.39228 -0.076735,-0.009 -0.061013,-2.64833 0.015774,-2.64833 0.036626,0 0.6293917,0.22869 1.3172558,0.50819 0.8042682,0.32681 1.64587413,0.50819 2.35792404,0.50819 1.03110606,0 1.15021776,-0.0521 1.73188636,-0.75777 0.5495468,-0.6667 0.6246269,-0.91017 0.6246269,-2.02556 0,-1.34679 -0.4829496,-2.50363 -1.60546686,-3.84568 -0.29091256,-0.34781 -0.84909259,-1.0209 -1.24039916,-1.49577 -0.39130658,-0.47487 -0.80294078,-0.96847 -0.91474268,-1.09686 -0.5141992,-0.59054 -1.7236292,-2.54365 -2.0148812,-3.25384 -0.438548,-1.06937 -0.4322444,-3.7006 0.011058,-4.61931 0.4602863,-0.95387 1.2676442,-2.01316 1.5343832,-2.01316 0.121738,0 0.3306185,-0.14945 0.464179,-0.3321 0.37669716,-0.51518 3.3354912,-0.71849 4.7207714,-0.32442 l 1.0778555,0.30662 v 1.39024 1.39025 l -0.5590094,-0.23865 c -0.3074552,-0.13125 -0.6505955,-0.30456 -0.7625336,-0.3851 -0.111938,-0.0806 -0.7156174,-0.17019 -1.3415107,-0.19919 -0.91061412,-0.0422 -1.26681491,0.039 -1.78276839,0.40641 -0.93050265,0.66258 -1.63088041,2.60264 -1.06567721,2.95195 0.0991276,0.0613 0.23830672,0.40971 0.30928871,0.7743 0.070982,0.36458 0.51585387,1.08802 0.98860507,1.60763 1.32165882,1.45267 1.77429172,1.99491 1.77429172,2.12558 0,0.0658 0.3710989,0.5413 0.8246629,1.05657 0.6504938,0.73901 0.798056,1.04289 0.6986845,1.43881 -0.1090007,0.4343 -0.083845,0.46696 0.1866502,0.24248 0.265007,-0.21994 0.3487182,-0.17115 0.5495408,0.32023 0.1303,0.31883 0.3800654,0.89986 0.5550353,1.29116 0.3431728,0.76749 0.4217858,3.12487 0.1389637,4.16717 -0.091011,0.3354 -0.3327143,0.84884 -0.5371207,1.14096 -0.2044043,0.29213 -0.3155171,0.58727 -0.2469175,0.65585 0.0686,0.0686 -0.048445,0.1886 -0.2600999,0.26666 -0.2116552,0.078 -0.4618068,0.26999 -0.5558932,0.42654 -0.6084583,1.01237 -3.76266377,1.36552 -5.8255812,0.65223 z m 15.9046144,0.24826 -0.459116,-0.0652 0.05256,-11.01336 0.05256,-11.01336 h 3.862246 3.862247 v 1.11802 1.11802 h -2.337676 c -1.829369,0 -2.392983,0.0663 -2.592033,0.30491 -0.180425,0.21629 -0.247742,1.16162 -0.2316,3.25242 0.01252,1.62113 -0.01024,3.04083 -0.05056,3.15489 -0.04032,0.11408 0.05255,0.34276 0.206384,0.50819 0.221018,0.23771 0.722112,0.28627 2.388495,0.23149 l 2.108797,-0.0693 v 1.26121 1.2612 l -2.114493,-0.0783 c -1.896324,-0.0702 -2.139044,-0.039 -2.352454,0.30276 -0.157535,0.25227 -0.223569,1.31865 -0.195375,3.15519 0.02342,1.52577 0.01411,2.86561 -0.02069,2.97741 -0.03481,0.1118 0.0605,0.45849 0.211801,0.77042 0.205807,0.42431 0.406723,0.55738 0.79776,0.52835 0.287471,-0.0213 1.414548,-0.025 2.504616,-0.008 l 1.981942,0.0306 v 1.10916 1.10916 l -3.608151,0.0597 c -1.984484,0.0328 -3.814754,0.0303 -4.067267,-0.005 z m 10.018351,-0.0365 c -0.03394,-0.0559 -0.04901,-5.04125 -0.03348,-11.07855 l 0.02823,-10.97691 h 1.197502 c 1.302467,0 1.261564,-0.0337 1.851801,1.52457 0.190569,0.50311 0.428573,1.07358 0.528898,1.26771 0.100325,0.19415 0.182408,0.49268 0.182408,0.66342 0,0.17073 0.08324,0.46926 0.184973,0.66341 0.344484,0.65735 1.034684,2.53991 1.034684,2.82214 0,0.15431 0.08324,0.4394 0.184973,0.63355 0.37513,0.71584 1.034683,2.55191 1.034683,2.88038 0,0.18633 0.08023,0.42568 0.17829,0.5319 0.09806,0.10621 0.335643,0.678 0.527963,1.27065 0.683709,2.1069 0.812253,1.31492 0.919957,-5.66807 l 0.101638,-6.58966 h 1.219656 1.219657 l 0.0374,11.00706 0.0374,11.00706 -0.748867,0.0892 c -1.327302,0.15815 -1.690868,-0.0564 -2.05251,-1.21118 -0.179635,-0.5736 -0.394305,-1.1106 -0.477047,-1.19335 -0.08274,-0.0827 -0.150436,-0.30095 -0.150436,-0.48491 0,-0.18399 -0.182949,-0.71316 -0.406552,-1.17598 -0.223604,-0.4628 -0.406553,-1.02343 -0.406553,-1.24584 0,-0.2224 -0.09147,-0.4609 -0.203276,-0.53 -0.111802,-0.0691 -0.203276,-0.34351 -0.203276,-0.60983 0,-0.26631 -0.09147,-0.54073 -0.203276,-0.60983 -0.111802,-0.0691 -0.203276,-0.34351 -0.203276,-0.60982 0,-0.26632 -0.08134,-0.53448 -0.180757,-0.59591 -0.09942,-0.0615 -0.243682,-0.36415 -0.320589,-0.67266 -0.07691,-0.30849 -0.260897,-0.83534 -0.408864,-1.17075 -0.147969,-0.3354 -0.316145,-0.79277 -0.373729,-1.01638 -0.161501,-0.62713 -0.921187,-2.5778 -1.056684,-2.71329 -0.390752,-0.39075 -0.499326,1.12457 -0.502131,7.00803 -0.0024,5.13772 -0.05999,6.57795 -0.26977,6.75206 -0.256896,0.2132 -2.14285,0.2396 -2.269037,0.0317 z m 17.578129,-0.16931 c -0.704451,-0.33634 -1.462451,-0.90155 -1.905234,-1.42065 -0.126041,-0.14776 -0.366376,-0.42613 -0.534079,-0.61859 -0.518769,-0.59534 -1.219657,-1.99272 -1.219657,-2.43165 0,-0.22975 -0.08181,-0.46827 -0.181804,-0.53007 -0.343899,-0.21254 -0.48045,-1.85174 -0.492181,-5.90828 -0.01285,-4.44002 0.06431,-5.00982 0.900977,-6.65453 0.09876,-0.19415 0.17956,-0.45355 0.17956,-0.57647 0,-0.3833 1.505953,-2.41693 1.880304,-2.53916 0.195654,-0.0639 0.355734,-0.19078 0.355734,-0.28201 0,-0.0912 0.16008,-0.22372 0.355733,-0.29446 0.195653,-0.0707 0.584419,-0.26298 0.863924,-0.42725 0.613021,-0.36028 3.490576,-0.41307 4.441742,-0.0815 0.628131,0.21897 0.640161,0.24763 0.640161,1.52457 0,0.71578 -0.04867,1.30141 -0.108167,1.30141 -0.05949,0 -0.43656,-0.13721 -0.837929,-0.30491 -0.401371,-0.1677 -1.264253,-0.30491 -1.917522,-0.30491 -1.042861,0 -1.276875,0.0782 -1.918274,0.64139 -1.422222,1.24873 -2.029499,2.89268 -2.37054,6.41727 -0.240445,2.48495 -0.118345,4.19513 0.475677,6.66248 0.560005,2.32604 1.943602,3.7606 3.627011,3.7606 1.092195,0 1.165834,-0.22695 1.205635,-3.71574 0.01758,-1.54055 0.08211,-2.93171 0.143409,-3.09145 0.12581,-0.32786 -0.334671,-0.47523 -1.745841,-0.55878 l -0.905591,-0.0536 6.1e-4,-1.11802 6.1e-4,-1.11802 2.381825,-0.0573 2.381823,-0.0573 -0.05399,5.71867 -0.054,5.71868 -1.016381,0.38592 c -1.28723,0.48876 -3.564378,0.49555 -4.573713,0.0136 z m 7.794122,0.0575 c -0.114219,-0.29764 0.142375,-1.9756 0.54244,-3.54721 0.09961,-0.39131 0.230932,-1.07736 0.291826,-1.52457 0.06089,-0.44721 0.208504,-1.27048 0.328024,-1.82949 0.119519,-0.559 0.266497,-1.38227 0.32662,-1.82948 0.06012,-0.44721 0.191417,-0.90001 0.291769,-1.00622 0.100349,-0.10621 0.182454,-0.61389 0.182454,-1.12818 0,-0.51429 0.08261,-1.02197 0.183569,-1.12818 0.100961,-0.10621 0.232155,-0.60475 0.291539,-1.10786 0.169068,-1.43236 0.491485,-3.21068 0.61973,-3.41819 0.101288,-0.16388 0.363392,-1.50802 0.899175,-4.61121 l 0.140387,-0.81311 1.553261,-0.059 1.553262,-0.059 0.115812,0.77044 c 0.181219,1.20553 0.49562,2.91113 0.74155,4.02285 0.283505,1.28158 0.594617,3.01196 0.730956,4.06552 0.05787,0.44721 0.185272,0.99606 0.283111,1.21966 0.09784,0.22361 0.229503,0.72671 0.292588,1.11802 0.393609,2.44147 0.534777,3.23925 0.701408,3.96388 0.690096,3.00109 0.996679,4.55666 1.16587,5.9155 0.147741,1.18657 0.01106,1.29213 -1.479818,1.14286 -0.940319,-0.0941 -0.984216,-0.17158 -1.292934,-2.28137 -0.166338,-1.13674 -0.511223,-2.61712 -0.639632,-2.74552 -0.169512,-0.16952 -4.257412,-0.15523 -4.403732,0.0154 -0.174013,0.20291 -0.464216,1.40072 -0.867203,3.57935 -0.271058,1.4654 -0.40026,1.58165 -1.764115,1.58732 -0.416861,0.002 -0.712367,-0.11536 -0.787917,-0.31225 z m 7.337165,-7.52689 c 0.271624,-0.1986 0.319558,-0.34971 0.170299,-0.53685 -0.114252,-0.14325 -0.263906,-0.71783 -0.332564,-1.27684 -0.06866,-0.55901 -0.21764,-1.51949 -0.331068,-2.1344 -0.113428,-0.61491 -0.258453,-1.52965 -0.322276,-2.03276 -0.06382,-0.50311 -0.194251,-1.09769 -0.289841,-1.32129 -0.09559,-0.22361 -0.231367,-0.75546 -0.301727,-1.18189 -0.07401,-0.44857 -0.225809,-0.74271 -0.360175,-0.69793 -0.220347,0.0734 -0.740413,2.26108 -1.171761,4.92896 -0.108458,0.67081 -0.283596,1.67703 -0.389198,2.23604 -0.1056,0.559 -0.197453,1.30631 -0.204118,1.66068 l -0.01212,0.64428 1.583261,-0.006 c 1.005584,-0.004 1.72119,-0.10664 1.961285,-0.28221 z m 10.583146,7.66166 c -1.418888,-0.4877 -2.202792,-0.97861 -2.887162,-1.80806 -0.951765,-1.15355 -1.682224,-2.60504 -1.684694,-3.34767 -10e-4,-0.30746 -0.0845,-0.55901 -0.185516,-0.55901 -0.499992,0 -0.699424,-7.31581 -0.262992,-9.64749 0.355723,-1.90049 1.148394,-3.76874 1.599019,-3.76874 0.14881,0 0.270564,-0.1706 0.270564,-0.37913 0,-0.57443 0.764646,-1.42616 1.436675,-1.60031 0.328895,-0.0852 0.601283,-0.24643 0.605305,-0.35823 0.02286,-0.63532 3.814365,-0.99823 4.962687,-0.47502 0.473503,0.21574 0.516551,0.34189 0.516551,1.51366 v 1.27828 l -0.704938,-0.29453 c -1.012083,-0.42287 -2.613793,-0.37268 -3.56319,0.11166 -0.868874,0.44327 -1.601396,1.51461 -2.25127,3.29261 -0.336926,0.92177 -0.391991,1.62765 -0.391991,5.02476 0,4.11153 0.07885,4.6433 0.959774,6.47284 0.761711,1.58194 1.655026,2.28533 2.902393,2.28533 0.782758,0 1.048224,-0.0861 1.212585,-0.39319 0.118124,-0.22072 0.210428,-1.72563 0.210428,-3.4308 0,-3.47565 -0.05379,-3.5987 -1.539423,-3.5218 l -0.899891,0.0466 v -1.22903 -1.22903 h 2.337676 2.337675 v 5.55859 c 0,6.1717 0.05596,5.91612 -1.402447,6.40592 -0.742393,0.24932 -2.91176,0.28072 -3.577818,0.0518 z m 8.034229,-0.0604 c -0.356567,-0.13246 -0.375585,-0.64398 -0.401048,-10.78644 -0.0147,-5.85608 0.03249,-10.80173 0.104858,-10.99033 0.117189,-0.30538 0.562976,-0.34291 4.073726,-0.34291 h 3.942136 v 1.21358 1.21358 l -2.591771,0.0569 -2.591771,0.0569 v 3.55734 3.55733 l 2.167501,0.0575 2.167501,0.0575 0.06854,1.20716 0.06854,1.20717 -2.236037,0.0566 -2.236038,0.0566 -0.05575,3.40902 c -0.06161,3.76685 0.04871,4.26356 0.93421,4.20609 0.299462,-0.0195 1.390612,-0.0256 2.424779,-0.0138 l 1.880305,0.0215 v 1.02277 c 0,0.63656 -0.09595,1.05543 -0.254095,1.10925 -0.446507,0.15201 -7.076462,0.21115 -7.465577,0.0666 z m 10.294504,0.10517 c -0.07454,-0.0745 -0.135518,-5.1056 -0.135518,-11.18018 v -11.04467 h 2.337675 c 1.422933,0 2.337676,0.0795 2.337676,0.20328 0,0.1118 0.217251,0.20327 0.482781,0.20327 1.501334,0 3.2524,1.13427 3.867824,2.50538 0.810462,1.80566 1.051099,4.69948 0.546588,6.5731 -0.312092,1.15902 -1.440517,2.79854 -1.978973,2.87532 -0.682118,0.0972 -0.705134,0.92281 -0.07119,2.55341 1.205242,3.10011 2.023313,5.33604 2.14883,5.87314 0.07209,0.30851 0.212423,0.61121 0.31184,0.67266 0.09942,0.0614 0.180757,0.22966 0.180757,0.3738 0,0.18456 -0.412897,0.27418 -1.395294,0.30287 l -1.395293,0.0407 -0.423553,-1.07712 c -0.232954,-0.59243 -0.538228,-1.48877 -0.678389,-1.99188 -0.140163,-0.50311 -0.313053,-0.96048 -0.384204,-1.01638 -0.07115,-0.0559 -0.182733,-0.28459 -0.247962,-0.50819 -0.06523,-0.22361 -0.382341,-1.13835 -0.704694,-2.03276 -0.514667,-1.42802 -0.651654,-1.63394 -1.123997,-1.68957 -0.295844,-0.0348 -0.716282,0.0321 -0.93431,0.14882 -0.371979,0.19906 -0.396395,0.45342 -0.396151,4.12687 l 2.04e-4,3.91473 -0.477825,0.13418 c -0.650602,0.18271 -1.701304,0.20478 -1.866878,0.0392 z m 5.559338,-11.32752 c 0.454422,-0.3007 0.923884,-0.7946 1.04325,-1.09751 0.119365,-0.30292 0.298659,-0.70959 0.398431,-0.90372 0.234436,-0.45617 0.235831,-3.30617 0.0018,-3.76614 -0.09876,-0.19413 -0.295694,-0.60178 -0.437634,-0.90588 -0.314708,-0.67423 -1.503341,-1.52624 -2.521421,-1.80735 -0.606838,-0.16756 -0.851757,-0.14349 -1.259568,0.12372 l -0.506251,0.3317 0.04301,3.90689 c 0.02366,2.14881 0.122251,4.1211 0.219093,4.3829 0.159708,0.43171 0.269823,0.46696 1.184547,0.37907 0.62602,-0.0602 1.321806,-0.30427 1.834694,-0.64368 z m 50.307719,11.27998 c -0.40038,-0.17006 -0.40573,-0.33964 -0.35228,-11.17501 l 0.0543,-11.0023 h 2.32659 c 1.88589,0 2.54945,0.0832 3.50306,0.43926 1.91295,0.71427 2.63198,1.31089 3.31267,2.74878 0.78655,1.66152 0.89335,5.12012 0.21227,6.87413 -0.36538,0.94099 -1.23371,2.10804 -1.67193,2.24712 -0.67953,0.21567 -0.84778,1.05405 -0.40199,2.0031 0.21486,0.45743 0.50402,1.24332 0.64259,1.74643 0.13857,0.50311 0.37016,1.18916 0.51463,1.52457 0.14449,0.3354 0.41592,1.02146 0.6032,1.52457 0.18728,0.50311 0.43427,1.11184 0.54886,1.35272 0.11459,0.2409 0.15098,0.53082 0.0809,0.64426 -0.0701,0.11345 0.0106,0.34433 0.1793,0.51307 0.16873,0.16872 0.30679,0.35905 0.30679,0.42294 0,0.0639 -0.60737,0.11615 -1.34971,0.11615 -1.45234,0 -1.88327,-0.2629 -1.89625,-1.15684 -0.004,-0.24495 -0.0854,-0.49415 -0.18186,-0.55377 -0.0965,-0.0596 -0.29196,-0.52476 -0.43443,-1.03362 -0.14248,-0.50886 -0.33797,-0.97399 -0.43444,-1.03361 -0.0965,-0.0596 -0.17539,-0.27376 -0.17539,-0.47585 0,-0.33478 -0.3188,-1.22728 -1.1853,-3.31834 -0.17373,-0.41926 -0.45835,-0.77678 -0.63249,-0.79449 -0.62979,-0.0641 -1.1151,0.0472 -1.27017,0.29134 -0.087,0.13696 -0.15963,2.00993 -0.16135,4.16212 -0.003,3.18314 -0.0552,3.91306 -0.28261,3.91306 -0.15373,0 -0.5425,0.0434 -0.86393,0.0965 -0.32143,0.053 -0.76736,0.0187 -0.99097,-0.0763 z m 4.09584,-10.70977 c 1.94992,-0.56685 2.91719,-2.05386 2.91719,-4.48466 0,-2.63208 -1.23351,-4.25207 -3.50502,-4.60318 -1.33047,-0.20568 -1.37361,-0.0618 -1.37361,4.58103 0,3.51663 0.0469,4.1376 0.33642,4.45756 0.40469,0.44716 0.27026,0.4431 1.62502,0.0493 z m 16.33341,10.3817 c -0.97227,-0.52413 -2.43931,-2.0014 -2.43931,-2.45633 0,-0.14991 -0.18295,-0.5983 -0.40655,-0.99642 -0.22361,-0.39811 -0.40655,-0.99546 -0.40655,-1.32747 0,-0.33201 -0.0808,-0.60365 -0.1796,-0.60365 -0.17551,0 -0.29996,-0.99065 -0.5598,-4.45618 -0.15991,-2.13277 0.53593,-7.53711 0.97045,-7.53711 0.0965,0 0.1755,-0.18295 0.1755,-0.40655 0,-0.22361 0.11434,-0.38369 0.25409,-0.35574 0.14077,0.0282 0.22797,-0.10564 0.1955,-0.29997 -0.11473,-0.68689 1.26673,-2.59671 1.87833,-2.59671 0.17307,0 0.31467,-0.0768 0.31467,-0.17065 0,-0.36354 1.10006,-0.64246 2.53389,-0.64246 2.13043,0 2.14146,0.008 2.14146,1.56807 0,1.17878 -0.0384,1.30546 -0.35573,1.17447 -1.68231,-0.69429 -2.96689,-0.35715 -3.92055,1.02895 -0.33129,0.48152 -0.60235,1.00384 -0.60235,1.1607 0,0.15687 -0.0654,0.35065 -0.14536,0.4306 -0.42723,0.42723 -0.65052,2.3464 -0.65877,5.66202 -0.009,3.79504 0.14138,4.88019 0.91597,6.59019 0.82951,1.83121 2.04651,2.44504 4.0045,2.01981 l 0.76229,-0.16555 v 1.20145 c 0,1.17621 -0.0142,1.20656 -0.67508,1.44555 -1.12163,0.4056 -2.76346,0.29012 -3.797,-0.26702 z m 7.52122,0.31929 -0.50819,-0.1314 V 262.17854 251.2108 h 1.3213 1.32129 l 0.0547,4.66911 c 0.0301,2.56803 0.13805,4.75243 0.23987,4.85424 0.28501,0.28501 4.19319,0.15272 4.80078,-0.1625 0.28792,-0.14937 0.41615,-0.30736 0.28496,-0.3511 -0.16765,-0.0559 -0.27113,-1.34667 -0.3482,-4.34332 -0.12674,-4.9279 -0.16016,-4.82966 1.60863,-4.72845 l 1.08371,0.062 0.0531,10.87527 c 0.0491,10.04349 0.0267,10.89471 -0.29294,11.12937 -0.42255,0.31024 -1.48802,0.33683 -1.48802,0.0371 0,-0.12426 -0.17323,-0.16199 -0.40538,-0.0883 -0.32347,0.10265 -0.40801,0.0336 -0.4184,-0.34203 -0.007,-0.2589 -0.0458,-2.41098 -0.0859,-4.78244 -0.0401,-2.37144 -0.13173,-4.40687 -0.20358,-4.52316 -0.15256,-0.24684 -4.16662,-0.26215 -4.56264,-0.0173 -0.20041,0.12386 -0.25307,1.25861 -0.23036,4.96378 0.0275,4.49074 0.006,4.80415 -0.33536,4.81724 -0.20065,0.008 -0.5935,0.0398 -0.87301,0.0714 -0.2795,0.0316 -0.73687,-0.002 -1.01638,-0.074 z m 28.57963,-0.31634 c -0.41186,-0.27951 -0.83187,-0.50819 -0.93334,-0.50819 -0.23228,0 -1.41858,-1.69734 -1.85016,-2.64719 -0.17894,-0.39384 -0.4358,-1.21711 -0.5708,-1.82948 -0.13501,-0.61239 -0.33175,-1.50351 -0.43718,-1.98028 -0.25768,-1.16495 -0.24345,-5.47134 0.0236,-7.13912 0.40592,-2.53536 0.62718,-3.47913 0.81566,-3.47913 0.10379,0 0.1887,-0.14174 0.1887,-0.31502 0,-0.80479 1.20336,-2.48566 2.32388,-3.24607 0.95316,-0.64683 1.41911,-0.76269 2.93498,-0.72982 1.43041,0.031 2.15432,0.41822 1.95513,1.04577 -0.0603,0.19008 -0.12233,0.68189 -0.13778,1.09289 -0.021,0.55751 -0.10186,0.71897 -0.31862,0.63579 -0.74809,-0.28707 -1.34621,-0.34762 -2.18747,-0.22147 -0.82725,0.12406 -0.98689,0.24564 -1.69756,1.29316 -0.85852,1.26538 -0.97981,1.74759 -1.2369,4.91685 -0.39195,4.83211 0.19129,8.64454 1.54149,10.07617 0.77859,0.82555 1.59161,1.17658 2.30338,0.99457 0.28386,-0.0726 0.65333,-0.16126 0.82103,-0.19704 0.16771,-0.0358 0.465,-0.12847 0.66065,-0.20595 0.31225,-0.12368 0.35535,-0.008 0.35262,0.94805 -0.002,0.59894 -0.0722,1.19757 -0.1566,1.33033 -0.25924,0.40771 -1.23281,0.67337 -2.46775,0.67337 -0.92137,0 -1.34122,-0.11073 -1.92692,-0.50819 z m 9.4507,-0.0671 c -0.94335,-0.63355 -2.04821,-2.13701 -2.04958,-2.78893 0,-0.2292 -0.0933,-0.50915 -0.20628,-0.62213 -0.13384,-0.13384 -0.18697,-3.35377 -0.15246,-9.2389 l 0.053,-9.03349 1.16883,-0.061 1.16884,-0.061 0.003,8.49692 c 0.003,8.82948 0.0478,9.36761 0.89194,10.76223 0.67753,1.1194 2.61972,1.11605 3.46612,-0.006 0.86313,-1.14424 0.92171,-1.82702 0.92289,-10.75623 l 0.002,-8.49693 1.16884,0.061 1.16884,0.061 0.053,9.03349 c 0.0345,5.88513 -0.0187,9.10506 -0.15245,9.2389 -0.11298,0.11298 -0.20541,0.40602 -0.20541,0.65119 0,0.2452 -0.14671,0.5021 -0.32602,0.57089 -0.206,0.079 -0.27771,0.25094 -0.19482,0.46694 0.15728,0.40987 -1.35607,1.89077 -1.93218,1.89077 -0.20287,0 -0.42539,0.0915 -0.49449,0.20328 -0.0691,0.1118 -0.88401,0.20328 -1.81088,0.20328 -1.51274,0 -1.77296,-0.0589 -2.54187,-0.5753 z m 11.01004,0.44155 -0.45737,-0.0978 v -11.0737 -11.07371 l 1.35949,0.0601 1.35949,0.0601 0.33504,0.91474 c 0.18427,0.50311 0.38881,1.05196 0.45455,1.21966 0.0657,0.1677 0.22584,0.67081 0.35577,1.11802 0.12994,0.44721 0.35588,1.08753 0.50207,1.42293 0.357,0.81898 1.88968,5.00995 2.34174,6.4032 1.17777,3.6299 1.31252,3.18393 1.37486,-4.54983 l 0.0536,-6.65048 1.16603,0.0609 1.16605,0.0609 0.0526,11.02773 0.0526,11.02773 h -1.22141 c -1.04368,0 -1.2214,-0.0536 -1.2214,-0.36838 0,-0.2026 -0.17175,-0.72858 -0.38165,-1.16883 -0.20993,-0.44026 -0.59034,-1.44078 -0.84539,-2.2234 -0.25505,-0.78261 -0.54067,-1.50983 -0.63473,-1.61604 -0.0941,-0.10621 -0.171,-0.3981 -0.171,-0.64866 0,-0.25053 -0.0915,-0.51207 -0.20327,-0.58116 -0.1118,-0.0691 -0.20328,-0.39466 -0.20328,-0.72346 0,-0.32882 -0.0915,-0.59784 -0.20327,-0.59784 -0.11181,0 -0.20328,-0.18419 -0.20328,-0.40931 0,-0.22511 -0.0844,-0.56814 -0.1875,-0.76229 -0.39005,-0.73431 -1.44084,-3.62 -1.43981,-3.95396 0,-0.19173 -0.18185,-0.4465 -0.40545,-0.56617 -0.38745,-0.20736 -0.40655,-0.15459 -0.40655,1.12286 0,0.82821 -0.0765,1.29316 -0.20021,1.21671 -0.12691,-0.0784 -0.14551,0.12192 -0.0508,0.54701 0.18651,0.8374 0.19891,10.44632 0.0136,10.63147 -0.18191,0.18185 -1.58055,0.29302 -2.15119,0.17099 z m -115.59239,-0.24387 c -0.0427,-0.0718 -0.0927,-5.04732 -0.11117,-11.05667 l -0.0335,-10.9261 h 2.33673 c 1.33854,0 2.39039,0.0868 2.46236,0.20328 0.0691,0.1118 0.39465,0.20327 0.72346,0.20327 0.32881,0 0.59783,0.0816 0.59783,0.18125 0,0.0997 0.22164,0.23685 0.49252,0.30485 0.70646,0.17732 1.67765,1.05325 1.82684,1.64771 0.0702,0.27983 0.26317,0.50878 0.42874,0.50878 0.16557,0 0.30104,0.17177 0.30104,0.38174 0,0.20994 0.14835,0.73592 0.32966,1.16883 0.51197,1.22243 0.39938,5.54408 -0.15334,5.88568 -0.097,0.0599 -0.17632,0.25139 -0.17632,0.42546 0,0.57121 -1.45102,2.30779 -2.30968,2.76423 -1.17969,0.62709 -1.69642,0.78948 -2.9755,0.93513 l -1.11802,0.12731 -0.0554,3.70506 -0.0554,3.70503 -1.21661,-0.0171 c -0.66913,-0.009 -1.25157,-0.0759 -1.29429,-0.14772 z m 4.78156,-10.04946 c 0.86466,-0.39682 1.804,-1.30512 1.804,-1.74438 0,-0.22423 0.0915,-0.46422 0.20328,-0.53331 0.11348,-0.0701 0.20327,-1.01923 0.20327,-2.14861 0,-2.44775 -0.42284,-3.56278 -1.70267,-4.48988 -0.6733,-0.48774 -0.99168,-0.58556 -1.74563,-0.53637 l -0.92214,0.0602 -0.0548,4.56912 c -0.0302,2.513 -0.0102,4.68552 0.0444,4.82781 0.12517,0.32618 1.45568,0.32339 2.17028,-0.005 z m 73.76375,9.58772 c 0,-0.361 0.0845,-0.93729 0.18769,-1.28062 0.23204,-0.77178 0.51471,-2.17337 0.8536,-4.23241 0.14259,-0.86647 0.32408,-1.57539 0.4033,-1.57539 0.0792,0 0.19518,-0.48024 0.25773,-1.0672 0.25042,-2.34943 0.37797,-3.1085 0.55344,-3.29307 0.10095,-0.10622 0.18356,-0.58646 0.18356,-1.0672 0,-0.48075 0.0827,-0.87409 0.18366,-0.87409 0.10101,0 0.22692,-0.4345 0.27981,-0.96556 0.0529,-0.53106 0.29745,-1.92604 0.54348,-3.09996 0.24602,-1.17392 0.50888,-2.54604 0.58411,-3.04915 l 0.13679,-0.91474 1.40474,-0.0608 c 1.52564,-0.0661 1.73748,0.0572 1.74293,1.01441 0.002,0.30085 0.0946,0.60355 0.20638,0.67264 0.1118,0.0691 0.20328,0.5722 0.20328,1.11802 0,0.54582 0.0793,1.04142 0.17632,1.10135 0.097,0.0599 0.23273,0.49983 0.30168,0.97755 0.069,0.47774 0.21869,1.32597 0.33276,1.88498 0.11406,0.55901 0.25975,1.38228 0.32372,1.82949 0.064,0.44721 0.19379,0.99605 0.28845,1.21966 0.0947,0.2236 0.22198,0.77244 0.28292,1.21965 0.061,0.44721 0.28863,1.6727 0.50593,2.72333 0.21729,1.05062 0.34761,2.03396 0.28955,2.18522 -0.058,0.15124 -0.004,0.27499 0.11951,0.27499 0.12963,0 0.22502,0.37056 0.22502,0.87409 0,0.48075 0.0803,0.96099 0.17848,1.0672 0.15921,0.17224 0.63463,2.90846 0.63463,3.65243 0,0.22319 -0.28717,0.2879 -1.21966,0.27476 -0.96601,-0.0136 -1.21966,-0.0836 -1.21966,-0.33662 0,-0.17569 -0.0865,-0.60038 -0.19221,-0.94371 -0.10573,-0.34335 -0.3451,-1.33319 -0.53196,-2.19965 l -0.33971,-1.57539 h -2.21738 -2.21735 l -0.12282,0.61405 c -0.0676,0.33775 -0.20247,0.66329 -0.29984,0.72346 -0.0974,0.0602 -0.18105,0.44705 -0.18597,0.8597 -0.005,0.41267 -0.12902,1.20766 -0.27575,1.76667 l -0.26678,1.01638 -1.14719,0.061 -1.14719,0.061 z m 7.48091,-7.04567 c 0.41194,-0.26989 0.43398,-0.33872 0.15789,-0.49323 -0.19519,-0.10922 -0.32085,-0.4531 -0.32085,-0.87799 0,-0.38415 -0.091,-1.08855 -0.20214,-1.56529 -0.11115,-0.47676 -0.38812,-1.82733 -0.61544,-3.00125 -0.58586,-3.02538 -0.59216,-3.04914 -0.80863,-3.04914 -0.10754,0 -0.25566,0.25155 -0.32915,0.55901 -0.0735,0.30745 -0.18726,0.65048 -0.25281,0.76228 -0.0656,0.11181 -0.14376,0.43197 -0.17376,0.71147 -0.0538,0.5014 -0.30386,1.97999 -0.67031,3.96388 -0.10326,0.55901 -0.24043,1.35941 -0.30481,1.77867 -0.0644,0.41926 -0.22726,0.76432 -0.36195,0.7668 -0.13469,0.002 -0.0318,0.16845 0.22862,0.3688 0.62552,0.48118 2.9608,0.52976 3.65334,0.076 z M 6.4906929,258.62534 c 0,-0.23928 0.1914658,-0.48508 0.4573714,-0.58716 0.76604,-0.29408 1.503038,-1.30024 1.6264693,-2.22049 0.1366077,-1.0185 -0.1911405,-1.45611 -1.0905297,-1.45611 H 6.8801436 l 0.059371,-1.57539 0.059369,-1.57539 h 1.5245711 1.5245703 l 0.05848,2.13344 c 0.03216,1.1734 -0.02721,2.31682 -0.1319422,2.54096 -0.1047319,0.22413 -0.2946935,0.68193 -0.4221354,1.01733 -0.2111186,0.55564 -1.6344317,1.82949 -2.0441348,1.82949 -0.093838,0 -0.2392214,0.0686 -0.3230729,0.15245 -0.2960025,0.29602 -0.6945275,0.14732 -0.6945268,-0.25913 z M 106.08504,226.6373 c -0.0521,-0.0521 -1.55744,-0.19602 -3.34514,-0.3198 -3.599862,-0.24921 -6.282556,-0.50294 -8.738827,-0.82654 -0.894415,-0.11782 -2.129318,-0.26747 -2.744228,-0.33256 -0.61491,-0.0651 -1.22605,-0.20455 -1.358088,-0.30997 -0.13204,-0.10542 -0.726623,-0.2242 -1.321295,-0.26396 -2.050607,-0.13711 -3.411811,-0.35805 -3.301879,-0.53591 0.06064,-0.0981 -0.181896,-0.1784 -0.538961,-0.1784 -0.901609,0 -3.2977,-0.43599 -3.531782,-0.64264 -0.106212,-0.0937 -0.465614,-0.17046 -0.798672,-0.17046 -0.333058,0 -0.886477,-0.0906 -1.229821,-0.20127 -0.343344,-0.11068 -1.904901,-0.53024 -3.470127,-0.93234 -4.578777,-1.17628 -12.257017,-3.62726 -14.839159,-4.73683 -0.223603,-0.0961 -0.90966,-0.38313 -1.524571,-0.63788 -0.61491,-0.25474 -1.505788,-0.63259 -1.979726,-0.83967 -0.473941,-0.20708 -0.954181,-0.37651 -1.0672,-0.37651 -0.113022,0 -0.205492,-0.0762 -0.205492,-0.16939 0,-0.0932 -0.13553,-0.16941 -0.30118,-0.16941 -0.165648,0 -0.691625,-0.18841 -1.168838,-0.41871 -1.628982,-0.78609 -3.103191,-1.43746 -3.561066,-1.57339 -0.251555,-0.0747 -0.457372,-0.22113 -0.457372,-0.32539 0,-0.10426 -0.126755,-0.18957 -0.281678,-0.18957 -0.421773,0 -1.358108,-0.5285 -1.205937,-0.68067 0.07284,-0.0728 -0.06441,-0.13244 -0.305002,-0.13244 -0.461262,0 -4.251616,-1.91695 -6.846619,-3.46264 -0.59167,-0.35242 -2.08392,-1.17415 -3.18021,-1.75125 -0.29569,-0.15565 -0.649919,-0.41832 -0.787175,-0.58369 -0.137256,-0.16538 -0.421304,-0.3007 -0.631217,-0.3007 -0.209915,0 -0.381663,-0.076 -0.381663,-0.16892 0,-0.0929 -0.251555,-0.29874 -0.55901,-0.45738 -0.307455,-0.15865 -0.736337,-0.44852 -0.953072,-0.64418 -0.216735,-0.19565 -0.47215,-0.35573 -0.56759,-0.35573 -0.09544,0 -0.284007,-0.0946 -0.419042,-0.21033 -0.211545,-0.18124 -2.829339,-1.93413 -3.784152,-2.5339 -0.177984,-0.1118 -0.369346,-0.24987 -0.425247,-0.30682 -0.0559,-0.0569 -0.483938,-0.35124 -0.951192,-0.65402 -0.467255,-0.30276 -1.063474,-0.78117 -1.324932,-1.06316 -0.261458,-0.28196 -0.793901,-0.67675 -1.183207,-0.8773 -0.880891,-0.45377 -5.48482,-4.0967 -5.48482,-4.33996 0,-0.0981 -0.104197,-0.17832 -0.231551,-0.17832 -0.198829,0 -2.525973,-1.88494 -3.122505,-2.52916 -0.111802,-0.12075 -1.300967,-1.1941 -2.64259,-2.38524 -2.519563,-2.23695 -7.2874902,-7.02173 -9.2490643,-9.28175 -0.6149104,-0.70848 -1.2636255,-1.44028 -1.4415897,-1.62621 -1.5543125,-1.62404 -4.25014238,-4.99135 -4.25014238,-5.30878 0,-0.13026 -0.0797066,-0.18759 -0.1771267,-0.12737 -0.18366406,0.1135 -1.85563472,-1.98579 -1.85563472,-2.32989 0,-0.10719 -0.071777,-0.19491 -0.1595027,-0.19491 -0.1728274,0 -2.8896395,-3.54298 -2.8896395,-3.76835 0,-0.0754 -0.2889265,-0.50183 -0.6420578,-0.94769 -0.7567788,-0.9555 -1.5939798,-2.1712 -1.5939798,-2.31459 0,-0.0557 -0.094757,-0.21167 -0.2105737,-0.3467 -0.2440798,-0.28459 -2.9499857,-4.46692 -3.0657767,-4.73857 -0.04274,-0.10026 -0.535077,-0.94142 -1.094087,-1.86925 -1.631312,-2.70758 -2.802046,-4.85234 -4.571669,-8.37522 -0.252723,-0.50311 -0.555491,-1.09769 -0.672819,-1.3213 -0.787891,-1.50156 -2.581643,-5.31371 -2.581643,-5.48659 0,-0.12107 -0.745013,-1.84305 -1.032991,-2.3876 -0.102666,-0.19413 -0.186666,-0.49143 -0.186666,-0.66065 0,-0.16921 -0.09147,-0.30767 -0.203276,-0.30767 -0.111802,0 -0.203276,-0.17755 -0.203276,-0.39455 0,-0.21701 -0.07893,-0.44334 -0.175392,-0.50296 -0.09647,-0.0596 -0.2929,-0.54525 -0.436521,-1.07919 -0.14362,-0.53394 -0.339117,-1.0577 -0.434436,-1.16391 -0.09532,-0.10622 -0.173308,-0.31645 -0.173308,-0.4672 0,-0.15074 -0.182949,-0.65273 -0.406553,-1.11554 -0.223603,-0.46281 -0.406552,-1.04535 -0.406552,-1.29454 0,-0.24918 -0.07303,-0.48356 -0.16229,-0.52082 -0.200468,-0.0837 -2.277024,-6.31086 -2.277024,-6.82832 0,-0.20594 -0.07934,-0.46134 -0.176308,-0.56755 -0.242894,-0.26604 -1.043348,-3.34894 -1.043348,-4.01838 0,-0.29984 -0.09148,-0.54517 -0.203277,-0.54517 -0.111801,0 -0.203276,-0.17848 -0.203276,-0.39663 0,-0.21815 -0.153197,-0.92708 -0.340439,-1.57539 -0.187241,-0.64832 -0.350915,-1.54507 -0.363719,-1.99279 -0.01281,-0.44771 -0.110552,-0.95082 -0.217216,-1.11801 -0.259504,-0.40677 -0.684686,-2.01205 -0.695864,-2.62724 -0.0049,-0.27156 -0.09463,-0.77467 -0.199324,-1.11802 -0.331115,-1.08588 -1.278912,-7.51034 -1.846465,-12.515911 -0.107751,-0.950316 -0.283889,-3.426168 -0.391419,-5.501894 -0.107529,-2.075726 -0.288985,-4.179634 -0.403237,-4.675351 -0.284483,-1.234326 -0.280391,-8.027135 0.0052,-8.560688 0.122943,-0.229723 0.261841,-1.886649 0.309866,-3.696426 0.04787,-1.80404 0.134556,-3.554495 0.192629,-3.889901 0.05807,-0.335405 0.150581,-1.158674 0.205573,-1.829485 0.05499,-0.670811 0.181671,-1.905714 0.281509,-2.744228 0.09984,-0.838514 0.287466,-2.439313 0.41695,-3.557332 0.129485,-1.118019 0.31896,-2.1916 0.421056,-2.385736 0.102096,-0.194137 0.185629,-0.793294 0.185629,-1.331459 0,-0.538166 0.08304,-1.065385 0.184537,-1.171596 0.101495,-0.106212 0.235162,-0.650484 0.297037,-1.209493 0.222089,-2.006466 0.376132,-2.849001 0.555627,-3.038979 0.100351,-0.106211 0.182455,-0.529542 0.182455,-0.940737 0,-0.411193 0.126165,-1.056087 0.280367,-1.433097 0.154202,-0.377008 0.343733,-1.211448 0.421179,-1.854309 0.07745,-0.642861 0.225705,-1.168838 0.329462,-1.168838 0.103757,0 0.188649,-0.224222 0.188649,-0.498273 0,-0.27405 0.144484,-1.028713 0.321075,-1.677028 0.176591,-0.648314 0.534819,-2.016576 0.796062,-3.040578 0.261242,-1.024003 0.57413,-2.047074 0.695306,-2.273493 0.121175,-0.226419 0.220319,-0.600632 0.220319,-0.831586 0,-0.230954 0.09147,-0.419916 0.203276,-0.419916 0.111802,0 0.203276,-0.19496 0.203276,-0.433244 0,-0.431019 1.006472,-3.58695 1.514938,-4.750297 0.146596,-0.335406 0.378649,-0.975726 0.515672,-1.422933 0.137023,-0.447208 0.453921,-1.270476 0.704216,-1.829486 0.250296,-0.559009 0.656155,-1.610963 0.90191,-2.337675 0.245755,-0.726712 0.534242,-1.351787 0.641083,-1.389053 0.106841,-0.03727 0.194256,-0.238978 0.194256,-0.448244 0,-0.364375 0.344161,-1.171668 2.033171,-4.769178 1.5107,-3.217717 2.122895,-4.473792 2.229166,-4.573713 0.05945,-0.0559 0.514225,-0.924906 1.0106,-1.931123 0.496376,-1.006217 1.263358,-2.424068 1.704405,-3.15078 0.441047,-0.726712 1.120556,-1.915878 1.510018,-2.64259 0.389463,-0.7267122 1.5480684,-2.6019345 2.574682,-4.1671608 1.0266116,-1.5652262 2.0752157,-3.1888944 2.3302297,-3.6081514 0.255016,-0.419257 0.5476787,-0.7622855 0.6503617,-0.7622855 0.1026829,0 0.1866969,-0.1225329 0.1866969,-0.2722965 0,-0.207171 2.5487352,-3.8186602 3.8916466,-5.5143613 0.091464,-0.1154933 0.705297,-0.8960452 1.3640703,-1.7345593 0.65877326,-0.8385141 1.41514143,-1.7509353 1.6808152,-2.0276022 0.2656758,-0.276667 0.7117328,-0.8391117 0.9912375,-1.2498759 0.4766318,-0.7004672 1.7950686,-2.2146341 4.5090369,-5.1784311 0.63524,-0.693714 1.2069541,-1.209328 1.2704759,-1.145805 0.063522,0.06352 0.1154954,0.0077 0.1154954,-0.123941 0,-0.307118 4.8261249,-5.180679 5.4550479,-5.508668 0.261128,-0.13618 0.427859,-0.294524 0.370511,-0.351871 -0.126352,-0.126354 3.400794,-3.344675 3.949444,-3.603644 0.213842,-0.100937 0.391579,-0.283886 0.394972,-0.406553 0.0034,-0.122669 0.559271,-0.634666 1.235284,-1.137775 0.676016,-0.503108 1.473639,-1.15309 1.772499,-1.444403 0.601948,-0.586746 2.554563,-2.146297 3.281743,-2.62112 0.256834,-0.167702 0.614774,-0.445591 0.795428,-0.61753 0.563298,-0.536129 1.816732,-1.415231 2.017851,-1.415231 0.105574,0 0.317493,-0.152213 0.470936,-0.338253 0.333082,-0.403845 2.633721,-2.101061 2.848061,-2.101061 0.08253,0 0.450513,-0.274422 0.817736,-0.609828 0.367222,-0.335406 0.741716,-0.609828 0.832208,-0.609828 0.09049,0 0.810092,-0.434503 1.599112,-0.965562 2.308606,-1.553833 4.47334,-2.911473 5.565331,-3.490364 0.55901,-0.296345 1.382278,-0.777136 1.829486,-1.068425 0.869702,-0.566482 0.856203,-0.559205 3.891504,-2.097507 1.101927,-0.55846 2.049241,-1.065842 2.105142,-1.127513 0.0559,-0.06167 0.696221,-0.396058 1.422933,-0.743079 2.554508,-1.219835 4.787186,-2.259356 5.79337,-2.697358 0.559009,-0.243342 1.175219,-0.527361 1.369356,-0.631153 0.194136,-0.103792 0.537165,-0.188712 0.762285,-0.188712 0.22512,0 0.409311,-0.07922 0.409311,-0.176039 0,-0.219474 2.223727,-1.043618 2.815917,-1.043618 0.240075,0 0.436501,-0.08081 0.436501,-0.179568 0,-0.09876 0.16008,-0.229974 0.355733,-0.291582 0.616431,-0.194105 3.183632,-1.156125 3.608152,-1.352101 0.874301,-0.403614 4.137188,-1.429167 4.547021,-1.429167 0.238284,0 0.433244,-0.09147 0.433244,-0.203276 0,-0.111802 0.130884,-0.203276 0.290854,-0.203276 0.15997,0 1.051844,-0.23417 1.981942,-0.520377 2.362317,-0.726925 3.547053,-1.05124 4.84187,-1.325433 0.61491,-0.130214 1.300967,-0.311542 1.524571,-0.402949 0.517325,-0.211479 3.203225,-0.794159 4.268799,-0.926074 0.447207,-0.05536 0.996053,-0.181271 1.219656,-0.279794 0.432332,-0.190493 1.394024,-0.360438 3.049143,-0.538828 0.559009,-0.06025 1.103281,-0.192588 1.209493,-0.294083 0.106211,-0.101496 0.626789,-0.184537 1.15684,-0.184537 0.530051,0 1.012565,-0.07902 1.072253,-0.175597 0.05969,-0.09658 0.728278,-0.230868 1.48575,-0.298422 0.757474,-0.06755 2.063281,-0.217102 2.901795,-0.332329 0.838514,-0.115228 2.530788,-0.294186 3.760609,-0.397686 1.229821,-0.1035 2.373242,-0.236549 2.540952,-0.295664 0.1677,-0.05912 1.86577,-0.145147 3.77349,-0.191181 2.14073,-0.05166 3.6422,-0.176617 3.92211,-0.326421 0.46327,-0.247933 7.43297,-0.197307 8.97304,0.06518 0.39131,0.06669 2.358,0.213706 4.37044,0.326696 3.53221,0.198318 5.28496,0.360429 8.74087,0.808437 0.89442,0.115947 2.26653,0.293599 3.04914,0.394781 0.78262,0.101183 2.13991,0.329047 3.01621,0.506364 0.8763,0.177318 1.89999,0.322396 2.27486,0.322396 0.37487,0 0.73812,0.09147 0.80722,0.203276 0.0691,0.111802 0.45677,0.203276 0.86149,0.203276 0.68366,0 1.33078,0.156544 2.75592,0.666682 0.31255,0.111879 0.90713,0.221466 1.32129,0.243528 0.41417,0.02206 1.28347,0.192187 1.93179,0.378056 0.64831,0.185869 1.35724,0.337943 1.57539,0.337943 0.21815,0 0.39663,0.09147 0.39663,0.203276 0,0.111802 0.23037,0.203276 0.51193,0.203276 0.47842,0 3.02141,0.609403 4.16342,0.997725 0.27951,0.09504 1.19425,0.377696 2.03276,0.628124 0.83852,0.250428 1.70752,0.527742 1.93113,0.616253 0.2236,0.08851 1.04687,0.374506 1.82948,0.635542 0.78262,0.261037 1.45343,0.543623 1.49069,0.627969 0.0373,0.08435 0.31627,0.153358 0.62,0.153358 0.30373,0 0.63913,0.08075 0.74534,0.179446 0.16642,0.154645 2.32909,0.982489 4.51273,1.72742 0.36336,0.123956 0.66065,0.294466 0.66065,0.378911 0,0.08445 0.13845,0.153537 0.30767,0.153537 0.16922,0 0.46651,0.084 0.66065,0.186665 0.54455,0.287978 2.26653,1.032991 2.38759,1.032991 0.0984,0 2.27728,1.001909 4.57186,2.102283 0.50311,0.241268 0.94523,0.507275 0.98249,0.591126 0.0373,0.08385 0.22168,0.152457 0.40979,0.152457 0.18811,0 0.98089,0.375576 1.76173,0.834613 0.78083,0.459037 1.87707,1.052924 2.43608,1.319749 0.55901,0.266826 1.47376,0.7587 2.03277,1.093055 0.55901,0.334354 1.19932,0.698866 1.42293,0.810026 0.2236,0.111159 0.90966,0.521716 1.52457,0.912347 0.61491,0.39063 1.63536,0.984252 2.26767,1.319155 0.63229,0.334906 1.18113,0.680567 1.21965,0.768138 0.0708,0.161015 0.50521,0.438353 2.2523,1.437941 0.52946,0.30292 0.96396,0.665107 0.96557,0.80486 0.002,0.139752 0.163,0.258553 0.35866,0.264002 0.19565,0.0054 0.85884,0.371986 1.47375,0.814526 0.61491,0.44254 1.62113,1.136334 2.23604,1.541764 1.19207,0.785973 3.10612,2.310329 3.21853,2.563249 0.0373,0.08385 0.19736,0.152457 0.35573,0.152457 0.15839,0 0.28798,0.07175 0.28798,0.159448 0,0.0877 0.25156,0.308325 0.55901,0.490284 0.83534,0.494373 1.48359,1.102155 1.33453,1.251209 -0.0725,0.0725 0.0112,0.131821 0.18608,0.131821 0.17484,0 0.57885,0.222546 0.89781,0.494546 0.31894,0.272002 1.35744,1.151559 2.30775,1.954573 0.95032,0.803014 1.82026,1.563816 1.9332,1.690672 0.11296,0.126855 0.89049,0.819813 1.72785,1.539908 1.58342,1.361654 7.76291,7.485638 9.35151,9.267498 0.50152,0.562528 1.41497,1.601425 2.02988,2.30866 0.61491,0.707234 1.50477,1.71057 1.97747,2.2296361 0.47267,0.5190676 0.86144,1.0053265 0.86392,1.0805793 0.002,0.075251 0.25603,0.4105731 0.56348,0.7451616 0.30746,0.3345864 0.94686,1.0962865 1.4209,1.6926641 0.47406,0.5963776 1.19624,1.4959579 1.60487,1.9990663 0.40864,0.5031085 0.86559,1.2059174 1.01546,1.561795 0.14986,0.3558796 0.4392,0.7675138 0.64295,0.9147426 0.20374,0.1472309 0.67928,0.72506159 1.05673,1.28407097 0.37746,0.55900937 0.73805,1.06211781 0.80133,1.11801875 0.0633,0.0559009 0.20653,0.25001538 0.31833,0.43136418 0.1118,0.1813508 0.77499,1.1742063 1.47375,2.206347 0.69877,1.0321407 1.27048,1.9473854 1.27048,2.0338773 0,0.086492 0.13532,0.2695584 0.30071,0.4068145 0.37435,0.3106873 0.91789,1.3796758 0.92206,1.813398 0.003,0.2837511 0.0279,0.2862108 0.20016,0.019596 0.16226,-0.2510602 0.19761,-0.2309034 0.20017,0.1141274 0.002,0.2304724 0.16319,0.6010265 0.35884,0.8234553 0.40212,0.4571579 0.68334,0.9181984 1.5359,2.5181116 0.32766,0.61491 0.66312,1.209493 0.74547,1.321295 0.0823,0.111802 0.46904,0.797859 0.85933,1.524571 0.39029,0.726712 1.13538,2.108105 1.65575,3.06976 0.52034,0.961657 0.9461,1.860066 0.9461,1.996462 0,0.136399 0.14171,0.389701 0.3149,0.562892 0.17319,0.173194 0.36758,0.578295 0.43196,0.900225 0.0644,0.321928 0.19094,0.585326 0.28123,0.585326 0.0903,0 0.22769,0.205817 0.30534,0.457371 0.0776,0.251554 0.45581,1.143428 0.84041,1.981942 0.38458,0.838514 0.77513,1.70752 0.86789,1.931124 0.0927,0.223603 0.41846,0.955397 0.72382,1.626209 0.30536,0.670811 0.78046,1.859976 1.05578,2.642589 0.27533,0.782614 0.57059,1.514408 0.65613,1.62621 0.0856,0.111801 0.20549,0.386224 0.26652,0.609828 0.061,0.223604 0.39817,1.184083 0.74921,2.134399 1.10499,2.991227 2.04441,5.86444 2.04441,6.252748 0,0.20573 0.076,0.460955 0.16892,0.567167 0.0929,0.106212 0.32588,0.787695 0.51775,1.514407 0.19185,0.726712 0.47327,1.732929 0.62538,2.236037 0.15213,0.503109 0.48009,1.783749 0.72884,2.845866 0.24875,1.062118 0.53163,2.089962 0.62861,2.284099 0.097,0.194136 0.17637,0.720113 0.17637,1.168837 0,0.448724 0.0915,0.815863 0.20327,0.815863 0.11181,0 0.20328,0.252158 0.20328,0.560351 0,0.308193 0.0885,0.868805 0.19659,1.2458 0.10812,0.376996 0.21748,1.039581 0.24301,1.472411 0.0255,0.432828 0.10839,0.786961 0.18411,0.786961 0.16089,0 0.41436,1.676677 0.48252,3.191917 0.0262,0.581636 0.14406,1.176219 0.26196,1.321295 0.11792,0.145078 0.2657,0.675411 0.32843,1.17852 0.0627,0.503108 0.16449,1.28064 0.22615,1.727847 0.0616,0.447208 0.20281,1.68211 0.31365,2.744228 0.11083,1.062118 0.2506,2.388495 0.31059,2.947504 0.22096,2.059183 0.45918,6.685148 0.35787,6.949159 -0.0575,0.149776 0.005,0.403977 0.13831,0.564892 0.13355,0.160914 0.18581,0.472211 0.11611,0.691772 -0.0697,0.219558 -0.0315,0.458032 0.0848,0.52994 0.27557,0.170301 0.29311,10.411404 0.0181,10.507712 -0.10646,0.03727 -0.29435,1.805769 -0.41751,3.930005 -0.23651,4.078501 -0.42788,6.217841 -0.80916,9.045788 -0.6015,4.46124 -0.80227,5.7742 -1.22787,8.02941 -0.12658,0.67081 -0.30579,1.63129 -0.3982,2.13439 -0.0924,0.50311 -0.3674,1.78375 -0.61109,2.84587 -0.24369,1.06212 -0.5162,2.29702 -0.60558,2.74423 -0.0894,0.44721 -0.30922,1.27047 -0.48853,1.82948 -0.17931,0.55901 -0.32701,1.2222 -0.32823,1.47376 -0.002,0.25155 -0.0937,0.45737 -0.20547,0.45737 -0.11181,0 -0.20328,0.31476 -0.20328,0.69947 0,0.3847 -0.0915,0.756 -0.20328,0.8251 -0.1118,0.0691 -0.20327,0.34352 -0.20327,0.60983 0,0.2663 -0.0915,0.54073 -0.20328,0.60982 -0.1118,0.0691 -0.20234,0.32606 -0.20122,0.57101 0.002,0.39217 -0.57306,2.34458 -1.02892,3.49452 -0.0886,0.2236 -0.22107,0.68097 -0.29429,1.01638 -0.0732,0.3354 -0.25539,0.88425 -0.40484,1.21965 -0.14943,0.33541 -0.38363,0.97573 -0.52043,1.42294 -0.1368,0.44721 -0.40497,1.179 -0.5959,1.62621 -0.19094,0.4472 -0.4651,1.179 -0.60926,1.62621 -0.14415,0.4472 -0.41896,1.179 -0.61069,1.62621 -0.19171,0.4472 -0.65298,1.54489 -1.02504,2.43931 -0.6184,1.48664 -1.267,2.93181 -2.82976,6.30514 -0.31167,0.67278 -0.716,1.34717 -0.89852,1.49865 -0.1825,0.15146 -0.33183,0.43164 -0.33183,0.62261 0,0.19096 -0.23712,0.79721 -0.52695,1.34722 -0.28982,0.55 -0.93111,1.77755 -1.42509,2.72786 -1.71986,3.3086 -2.70957,4.97994 -2.91903,4.92945 -0.11597,-0.028 -0.21084,0.13583 -0.21084,0.36396 0,0.34273 -0.60448,1.42149 -1.02052,1.82126 -0.0582,0.0559 -0.21759,0.33032 -0.35425,0.60982 -0.13666,0.27951 -0.36348,0.6858 -0.50405,0.90288 -0.14056,0.21705 -0.55181,0.87418 -0.91386,1.46029 -0.36206,0.58609 -0.75648,1.12629 -0.87647,1.20045 -0.11999,0.0742 -0.30378,0.33179 -0.40842,0.57246 -0.27573,0.63427 -2.27078,3.52087 -3.39327,4.90971 -0.0904,0.1118 -0.74688,1.00776 -1.45893,1.99103 -0.71206,0.98325 -1.48681,1.94373 -1.72171,2.1344 -0.23489,0.19065 -0.68128,0.73749 -0.99201,1.21517 -0.69299,1.06541 -1.12633,1.60512 -1.72191,2.14458 -0.25156,0.22785 -0.45737,0.47536 -0.45737,0.55002 0,0.15287 -1.33784,1.69714 -2.49014,2.87439 -0.41925,0.42834 -0.76228,0.87567 -0.76228,0.99406 0,0.11841 -0.0869,0.16158 -0.19307,0.0959 -0.10619,-0.0656 -0.30311,0.0891 -0.43758,0.34374 -0.35302,0.66863 -2.67513,3.00092 -2.9895,3.00259 -0.14636,0 -0.21919,0.0773 -0.16184,0.1701 0.15617,0.25271 -2.03842,2.34074 -2.29412,2.1827 -0.12871,-0.0795 -0.17813,-0.0253 -0.11851,0.13009 0.12585,0.32795 -2.61183,3.00699 -3.07278,3.00699 -0.20988,0 -0.28747,0.11103 -0.21308,0.30491 0.0644,0.1677 0.0349,0.30492 -0.0655,0.30492 -0.1004,0 -0.76036,0.54982 -1.46656,1.22183 -0.7062,0.67199 -1.44446,1.27275 -1.64056,1.33499 -0.19612,0.0623 -0.35656,0.24961 -0.35656,0.41637 0,0.16677 -0.0842,0.25121 -0.18702,0.18763 -0.10286,-0.0636 -0.40015,0.14615 -0.66065,0.46607 -0.45826,0.56277 -2.65812,2.26811 -2.92583,2.26811 -0.0725,0 -0.30103,0.21505 -0.50778,0.47788 -0.20676,0.26286 -1.18041,1.06048 -2.16366,1.77253 -0.98326,0.71206 -1.87922,1.36525 -1.99102,1.45156 -1.72198,1.3294 -2.53575,1.91713 -4.0517,2.92628 -0.9897,0.65884 -2.24511,1.49518 -2.78979,1.85853 -0.54468,0.36336 -1.03018,0.66065 -1.07893,0.66065 -0.0894,0 -1.5727,0.94521 -2.59089,1.65099 -0.30292,0.20996 -0.73743,0.38177 -0.96556,0.38177 -0.22814,0 -0.39192,0.099 -0.36397,0.22009 0.028,0.12107 -0.68098,0.6131 -1.57539,1.09342 -0.89442,0.48032 -2.2067,1.20453 -2.91622,1.60938 -0.70949,0.40484 -1.36951,0.73608 -1.46668,0.73608 -0.0972,0 -0.60942,0.27442 -1.1383,0.60983 -0.52887,0.33541 -1.14979,0.60983 -1.37982,0.60983 -0.23003,0 -0.84303,0.30203 -1.36224,0.67118 -0.5192,0.36914 -1.34219,0.84205 -1.82883,1.05091 -0.48664,0.20887 -1.61662,0.71637 -2.51103,1.12776 -0.89442,0.41141 -2.358,1.04996 -3.25242,1.41901 -0.89441,0.36905 -1.99211,0.82786 -2.43931,1.01957 -0.44721,0.19173 -1.179,0.47105 -1.62621,0.62072 -0.44721,0.14968 -0.90001,0.34492 -1.00622,0.4339 -0.10621,0.089 -0.3981,0.16178 -0.64865,0.16178 -0.25055,0 -0.50432,0.0789 -0.56394,0.17539 -0.0596,0.0965 -0.54525,0.29361 -1.07919,0.4381 -0.53394,0.14449 -1.06228,0.32352 -1.17408,0.39781 -0.1118,0.0743 -0.61491,0.252 -1.11802,0.39483 -0.5031,0.14284 -1.07358,0.34227 -1.26771,0.44318 -0.19414,0.10091 -0.53177,0.18346 -0.75029,0.18346 -0.21853,0 -0.44419,0.0758 -0.50148,0.16853 -0.0573,0.0927 -0.6344,0.29038 -1.28247,0.43928 -0.64807,0.1489 -1.26521,0.34748 -1.37142,0.44129 -0.10622,0.0938 -0.49498,0.17055 -0.86393,0.17055 -0.36894,0 -0.67081,0.0915 -0.67081,0.20328 0,0.1118 -0.22993,0.20327 -0.51095,0.20327 -0.28102,0 -0.66978,0.0834 -0.86392,0.18533 -0.19414,0.10194 -0.90182,0.29961 -1.57263,0.43928 -0.67081,0.13967 -1.30656,0.33069 -1.41277,0.4245 -0.10621,0.0938 -0.39904,0.17055 -0.65073,0.17055 -0.25169,0 -0.98806,0.14441 -1.63637,0.32089 -0.64832,0.17649 -1.49892,0.36431 -1.89023,0.41741 -0.3913,0.0531 -0.94015,0.17577 -1.21965,0.27265 -0.27951,0.0969 -0.91983,0.23605 -1.42294,0.30929 -0.50311,0.0732 -1.37211,0.22196 -1.93112,0.33049 -1.3742,0.26678 -3.18204,0.56209 -4.77699,0.78037 -0.72671,0.0994 -2.05309,0.28359 -2.9475,0.40922 -2.17455,0.3054 -4.88852,0.5771 -8.33433,0.8343 -2.98976,0.22318 -16.21162,0.47524 -16.37469,0.31218 z M 34.491982,119.06764 c 0.810563,-0.0667 1.473752,-0.19647 1.473752,-0.28831 0,-0.0918 0.434503,-0.21359 0.965562,-0.27057 1.634232,-0.17533 5.598298,-1.43503 7.187779,-2.28413 0.291768,-0.15586 0.58906,-0.22481 0.660647,-0.15322 0.07159,0.0716 0.130162,0.0234 0.130162,-0.107 0,-0.13043 0.228686,-0.23715 0.508191,-0.23715 0.279504,0 0.50819,-0.0915 0.50819,-0.20328 0,-0.1118 0.114343,-0.20632 0.254095,-0.21003 0.139752,-0.004 0.619992,-0.27453 1.0672,-0.60182 0.447207,-0.32728 1.109016,-0.73063 1.470682,-0.89633 0.60628,-0.27777 1.99874,-1.24905 3.016931,-2.1044 0.23215,-0.19502 0.674316,-0.53753 0.982591,-0.76113 0.995528,-0.7221 5.40507,-5.35674 5.40507,-5.68099 0,-0.0788 0.404249,-0.66862 0.898332,-1.31071 0.913021,-1.18654 1.645197,-2.31581 1.858986,-2.8672 0.06502,-0.1677 0.219266,-0.48786 0.342761,-0.71146 0.634272,-1.148442 1.778548,-3.674467 1.778548,-3.926202 0,-0.105149 0.125639,-0.295452 0.279196,-0.422894 0.153559,-0.127442 0.340146,-0.691171 0.41464,-1.252732 0.07449,-0.56156 0.213751,-1.223153 0.309462,-1.470205 0.496124,-1.280611 0.688098,-2.231527 0.508111,-2.516863 -0.165638,-0.262592 -1.363778,-0.300526 -8.807852,-0.278856 -5.277555,0.01537 -8.762614,0.103471 -8.994168,0.227394 -0.207917,0.111276 -0.378033,0.38329 -0.378033,0.604477 0,0.221186 -0.07958,0.560997 -0.176844,0.755134 -0.09726,0.194137 -0.394555,0.80265 -0.660647,1.352252 -0.730559,1.508943 -0.871248,1.74495 -1.040197,1.74495 -0.08529,0 -0.155073,0.119439 -0.155073,0.265422 0,0.287872 -0.596136,1.147073 -1.784801,2.572405 -1.064635,1.276608 -2.728046,2.853908 -3.009717,2.853908 -0.08993,0 -0.397194,0.21564 -0.682815,0.4792 -1.0264,0.94712 -4.707253,2.56994 -5.82909,2.56994 -0.221256,0 -0.504208,0.10192 -0.628782,0.2265 -0.297763,0.29776 -6.639082,0.31285 -7.590418,0.0181 -0.385194,-0.11936 -1.111988,-0.33236 -1.615096,-0.47332 -1.507878,-0.42249 -3.730061,-1.4971 -4.507639,-2.17982 -0.401265,-0.35231 -0.820109,-0.64057 -0.930764,-0.64057 -0.283674,0 -2.80191,-2.466303 -2.957683,-2.896688 -0.07081,-0.195653 -0.2043,-0.355733 -0.296638,-0.355733 -0.297857,0 -1.597231,-1.883825 -2.523786,-3.65897 C 11.05658,92.27879 10.424674,90.711435 10.221784,89.70791 10.165275,89.428405 10.039648,89.016771 9.9426126,88.793167 9.455815,87.671408 9.210979,82.235058 9.5367758,79.781946 10.036485,76.019337 11.504074,72.312957 13.574952,69.583572 c 0.381726,-0.503108 0.787561,-0.914743 0.901857,-0.914743 0.114296,0 0.233064,-0.172056 0.263928,-0.382348 0.06816,-0.464417 1.279859,-1.752051 1.648726,-1.752051 0.145771,0 0.265037,-0.09147 0.265037,-0.203276 0,-0.302113 0.770413,-1.016381 1.09627,-1.016381 0.155742,0 0.328285,-0.114343 0.383432,-0.254095 0.132949,-0.336922 3.11144,-1.814441 4.720221,-2.341524 1.775688,-0.58177 3.035459,-0.730574 6.052463,-0.71492 1.763628,0.0091 3.318691,0.104958 3.455695,0.212904 0.137004,0.107947 0.645223,0.25675 1.129378,0.330675 1.473176,0.224933 5.726193,2.392174 5.726193,2.917937 0,0.140566 -0.10672,0.255576 -0.237156,0.255576 -0.130434,0 -0.178383,0.05877 -0.106549,0.130604 0.07183,0.07183 0.272081,0.01319 0.444996,-0.130316 0.269227,-0.223439 0.591145,0.02313 2.240948,1.716401 1.059608,1.087525 1.92656,2.101934 1.92656,2.254241 0,0.152306 0.219477,0.513742 0.487727,0.803186 0.433519,0.467775 1.243448,2.007867 2.204788,4.192431 0.294614,0.669487 0.414333,0.745986 1.364786,0.872068 1.721824,0.228408 16.064818,0.114211 16.605658,-0.132212 0.481594,-0.219429 0.630467,-0.643882 0.297922,-0.849406 -0.09891,-0.06113 -0.228985,-0.363822 -0.289053,-0.672645 -0.671972,-3.454849 -3.509569,-9.25926 -6.130534,-12.540241 -0.618787,-0.77461 -1.125068,-1.544518 -1.125068,-1.710906 0,-0.16639 -0.05548,-0.247042 -0.123295,-0.179231 -0.06781,0.06781 -0.593788,-0.389652 -1.168838,-1.016586 -0.575048,-0.626934 -1.137017,-1.215719 -1.248819,-1.308411 -0.959508,-0.795505 -1.48935,-1.35697 -1.38192,-1.464401 0.07061,-0.07061 0.01626,-0.128383 -0.120773,-0.128383 -0.137036,0 -0.995614,-0.571714 -1.907952,-1.270476 -0.912337,-0.698762 -2.11897,-1.562375 -2.681407,-1.91914 -1.135133,-0.720039 -4.831583,-2.586008 -5.545507,-2.799373 -0.251555,-0.07518 -0.457372,-0.222002 -0.457372,-0.32627 0,-0.104267 -0.16008,-0.190909 -0.355733,-0.192535 -0.195653,-0.0016 -0.72163,-0.130418 -1.168838,-0.286201 -1.520404,-0.529626 -4.772873,-1.337051 -5.385905,-1.337051 -0.335908,0 -0.610741,-0.07769 -0.610741,-0.172648 0,-0.204185 -3.642946,-0.510427 -6.098284,-0.512651 -2.333224,-0.0021 -5.884668,0.300837 -6.015897,0.513171 -0.05851,0.09467 -0.552956,0.172128 -1.098768,0.172128 -0.545813,0 -1.048922,0.09147 -1.118019,0.203276 -0.0691,0.111802 -0.319556,0.203276 -0.556574,0.203276 -0.237018,0 -0.711859,0.08528 -1.055203,0.189503 -0.343343,0.104225 -1.035895,0.2976 -1.539003,0.429721 -0.503109,0.132122 -1.097692,0.316367 -1.321295,0.409437 -0.223604,0.09307 -0.909661,0.367771 -1.524571,0.610452 -1.163118,0.459037 -3.115526,1.419858 -4.167161,2.050746 -0.335406,0.201215 -1.021463,0.587868 -1.5245715,0.85923 -1.3652473,0.736372 -4.5301735,3.361996 -6.6639266,5.528395 -1.0378142,1.053694 -1.83460785,1.915809 -1.77065108,1.915809 0.0639568,0 0.0196365,0.114342 -0.098471,0.254095 -2.27551182,2.692333 -5.04314492,7.725564 -6.17561672,11.231006 -1.0624329,3.288644 -1.35015,4.369827 -1.35015,5.07359 0,0.395878 -0.078034,0.71978 -0.1734108,0.71978 -0.1896099,0 -0.4734281,3.071462 -0.5071597,5.488456 -0.027487,1.969689 0.2815374,5.937379 0.4828825,6.199922 0.08574,0.111802 0.2003062,0.660648 0.2545871,1.219657 0.054283,0.559009 0.209411,1.382278 0.3447279,1.829485 0.1353148,0.447208 0.293362,1.111244 0.3512123,1.475637 0.057852,0.364392 0.1865527,0.712818 0.2860014,0.774282 0.099449,0.06146 0.1808162,0.290541 0.1808162,0.509065 0,0.218522 0.084,0.556151 0.1866665,0.750288 0.3124537,0.590834 0.9619637,2.135334 1.2597286,2.995565 0.1547989,0.447207 0.380411,0.918596 0.5013603,1.047532 0.1209514,0.128936 0.4789369,0.746392 0.7955253,1.372112 0.3165904,0.62573 0.6521342,1.13769 0.7456535,1.13769 0.093519,0 0.1700364,0.17532 0.1700364,0.38961 0,0.21429 0.075887,0.4201 0.1686379,0.45737 0.092751,0.0373 0.5729907,0.67702 1.0671997,1.42166 1.5561745,2.34475 4.2393057,5.22213 6.8443891,7.33989 0.6987618,0.56805 1.2704759,1.09307 1.2704759,1.16672 0,0.0736 0.1143429,0.13463 0.2540952,0.13552 0.1397524,8.1e-4 0.7951614,0.35916 1.4564655,0.79616 1.5701091,1.03756 3.2456611,1.92318 5.1692861,2.73226 0.855863,0.35998 1.834382,0.77545 2.174489,0.92327 0.554509,0.241 1.434898,0.49332 2.938957,0.8423 0.279504,0.0649 0.562745,0.20129 0.629424,0.3032 0.06668,0.1019 0.569787,0.22141 1.118019,0.26558 2.388521,0.19243 4.813058,0.49283 4.931205,0.61098 0.137187,0.13719 6.478272,-0.0201 8.922796,-0.22136 z m 101.741608,-0.51631 c 2.20413,-0.50261 2.11702,-0.4708 4.69497,-1.71423 1.38156,-0.66637 2.34177,-1.29663 3.09333,-2.03038 l 1.08987,-1.06406 0.0574,2.16114 0.0575,2.16113 8.41239,0.0531 c 6.06061,0.0382 8.49032,-0.0116 8.69116,-0.17827 0.39106,-0.32455 0.409,-70.145932 0.0182,-70.882711 l -0.24985,-0.47106 -8.61511,0.01096 c -5.63208,0.0072 -8.70302,0.08392 -8.86903,0.221689 -0.19628,0.162903 -0.26186,2.619343 -0.28886,10.820893 -0.0192,5.835582 -0.0776,10.652779 -0.12967,10.704885 -0.0521,0.0521 -0.43608,-0.222726 -0.85329,-0.610733 -1.43984,-1.339069 -4.14759,-2.919043 -5.42508,-3.165528 -0.21875,-0.04221 -0.44744,-0.151924 -0.50819,-0.243815 -0.11135,-0.168415 -0.52917,-0.235317 -4.55749,-0.729741 -1.88694,-0.231599 -2.60198,-0.227515 -4.87863,0.02786 -3.73086,0.418501 -4.17965,0.49117 -4.30711,0.697414 -0.0618,0.09999 -0.33689,0.181804 -0.61132,0.181804 -0.27442,0 -0.65779,0.0808 -0.85192,0.17956 -0.19414,0.09876 -0.58167,0.267344 -0.86117,0.374636 -0.2795,0.107291 -1.22264,0.531583 -2.09586,0.94287 -0.87321,0.411284 -1.68775,0.685937 -1.81007,0.610336 -0.12629,-0.07805 -0.16489,-0.04439 -0.0893,0.07788 0.0741,0.119852 -0.25003,0.44013 -0.73088,0.722249 -0.91753,0.538332 -2.89014,2.071778 -4.37696,3.402509 -0.49445,0.44254 -0.96745,0.80462 -1.05111,0.80462 -0.0837,0 -0.46308,0.475107 -0.84314,1.055792 -0.38007,0.580686 -0.78438,1.198138 -0.89847,1.372113 -1.03413,1.577005 -1.43734,2.276866 -2.14635,3.72545 -1.25426,2.562603 -1.95305,4.721784 -2.48209,7.669422 -0.29561,1.647041 -0.29202,10.685873 0.005,12.09493 0.36704,1.742412 0.87914,3.643596 1.08064,4.011946 0.1062,0.19413 0.19309,0.47521 0.19309,0.62462 0,0.14941 0.26992,0.82887 0.59982,1.50992 0.3299,0.68104 0.73983,1.54339 0.91095,1.91632 0.49051,1.06903 1.61237,2.88141 2.09782,3.38907 0.14289,0.14943 0.50996,0.6068 0.8157,1.01638 0.69345,0.92897 2.98637,3.18075 3.83243,3.76366 2.50741,1.72754 3.17202,2.16457 3.29177,2.16457 0.075,0 0.77741,0.30528 1.56102,0.67839 1.82782,0.87032 4.45811,1.70315 6.70991,2.12456 0.55901,0.10462 2.68664,0.20281 4.72806,0.2182 3.11434,0.0235 4.014,-0.0409 5.5901,-0.40035 z m -4.32152,-15.22392 c -0.1677,-0.10838 -0.62858,-0.19845 -1.02418,-0.20016 -0.75088,-0.003 -2.60481,-0.57875 -3.07419,-0.95429 -0.14964,-0.11972 -0.59008,-0.37938 -0.97876,-0.57702 -0.90146,-0.45839 -3.0034,-2.585842 -3.38086,-3.421892 -0.15892,-0.352003 -0.37144,-0.777218 -0.47227,-0.944921 -0.37731,-0.62755 -0.90374,-1.958153 -1.0857,-2.744228 -0.30797,-1.330448 -0.4238,-4.606439 -0.16845,-4.764256 0.12304,-0.07604 0.26324,-0.614036 0.31156,-1.19555 0.0483,-0.581512 0.23131,-1.344855 0.40664,-1.696317 0.17533,-0.351463 0.31879,-0.711857 0.31879,-0.800878 0,-0.561451 2.1929,-3.125572 3.69389,-4.319195 0.90655,-0.720907 3.12307,-1.618826 4.43627,-1.797142 0.7272,-0.09875 1.67193,-0.232068 2.09941,-0.296273 1.44564,-0.217131 6.84562,1.19788 6.84562,1.793827 0,0.0978 0.22869,0.264759 0.50819,0.371025 0.27951,0.106267 0.50819,0.286953 0.50819,0.401522 0,0.114568 0.13722,0.208307 0.30492,0.208307 0.1677,0 0.30491,0.131048 0.30491,0.291215 0,0.16017 0.16008,0.34298 0.35574,0.406248 0.19565,0.06326 0.5836,0.458196 0.8621,0.87762 0.27851,0.419426 0.55294,0.808329 0.60983,0.86423 0.25426,0.249802 1.19234,2.229242 1.50147,3.16825 0.43192,1.311983 0.55758,5.425249 0.17738,5.806014 -0.13976,0.139959 -0.2541,0.542284 -0.2541,0.894053 0,0.57632 -0.3234,1.498111 -0.81685,2.328252 -0.0997,0.167702 -0.44956,0.762285 -0.7775,1.321295 -0.74969,1.277919 -1.12503,1.690864 -2.2679,2.495104 -0.5031,0.35404 -1.23657,0.87321 -1.62991,1.15372 -1.38462,0.98741 -6.42643,1.90519 -7.31424,1.33144 z m 68.1686,15.42593 0.53874,-0.24548 v -6.361 c 0,-4.39427 -0.0729,-6.52109 -0.2359,-6.87876 -0.23066,-0.50623 -0.2827,-0.51776 -2.33768,-0.51776 -1.73272,0 -2.10177,-0.0535 -2.10177,-0.30491 0,-0.1677 -0.12304,-0.30491 -0.27341,-0.30491 -0.15038,0 -0.44767,-0.19247 -0.66064,-0.42771 -0.36907,-0.40763 -0.39017,-0.94367 -0.44951,-11.42568 -0.0342,-6.04889 -0.009,-11.212134 0.0572,-11.473877 0.11811,-0.470578 0.14894,-0.475538 2.75923,-0.444022 1.81945,0.02197 2.73256,-0.04514 2.93836,-0.215938 0.41399,-0.34359 0.4283,-12.880172 0.0155,-13.517225 -0.24477,-0.377663 -0.41359,-0.397811 -2.37587,-0.283542 -2.62078,0.152616 -3.20144,0.06318 -3.34668,-0.515494 -0.061,-0.243234 -0.0827,-4.568932 -0.0482,-9.612662 0.0593,-8.658557 0.0423,-9.183197 -0.3041,-9.399413 -0.48268,-0.301251 -16.87785,-0.298322 -17.44109,0.0031 -0.36978,0.197899 -0.38521,0.592468 -0.38521,9.854618 V 66.33114 H 174.922 c -1.01589,0 -1.54105,-0.08288 -1.61015,-0.254095 -0.0575,-0.142416 -0.10958,-0.08605 -0.11859,0.128234 -0.0132,0.316658 -0.12953,0.363275 -0.67669,0.27139 -0.36335,-0.06102 -0.79804,-0.165544 -0.96598,-0.232281 -0.71399,-0.283743 -0.80174,0.487468 -0.81826,7.192172 -0.009,3.584843 0.04,6.608513 0.1084,6.719266 0.0722,0.116774 1.26956,0.201367 2.85031,0.201367 h 2.72587 l 0.0862,11.637559 c 0.0835,11.282248 0.15681,13.219548 0.53249,14.076868 0.098,0.22361 0.32896,0.90967 0.51327,1.52458 0.4457,1.48686 0.82558,2.25344 1.99652,4.02886 0.91187,1.38263 2.67218,3.28533 3.04188,3.28794 0.0885,6.1e-4 0.33782,0.16591 0.55399,0.36729 0.3476,0.32386 0.75285,0.56762 2.3342,1.40412 1.03142,0.54559 3.60085,1.33599 5.18354,1.59453 3.6882,0.60249 8.59803,0.8497 9.42179,0.47438 z M 93.443117,99.211069 l 0.05187,-18.853862 2.99727,-0.0031 c 1.648498,-0.0016 3.109218,-0.07424 3.246045,-0.161167 0.187108,-0.118874 0.253951,-1.793548 0.269658,-6.755818 l 0.0209,-6.597766 -0.472933,-0.261006 c -0.320384,-0.176818 -1.147805,-0.243045 -2.565191,-0.205321 -1.536306,0.04089 -2.135231,-0.01384 -2.253981,-0.205986 -0.128017,-0.207137 -0.216562,-0.195597 -0.424845,0.05537 -0.200489,0.241576 -0.329283,0.262133 -0.541066,0.08637 -0.359494,-0.298354 -0.377051,-2.995961 -0.02385,-3.66455 0.841657,-1.593207 1.353278,-1.853248 3.752274,-1.907176 1.154448,-0.02595 2.001128,-0.141199 2.190217,-0.29813 0.456585,-0.378929 0.463735,-13.240176 0.0076,-13.618756 -0.368346,-0.305698 -5.105323,-0.300332 -7.525453,0.0085 -2.5247,0.322205 -4.230348,0.611318 -4.675352,0.792486 -0.223604,0.09103 -0.818186,0.277116 -1.321295,0.413521 -0.503108,0.136404 -1.266416,0.421255 -1.696238,0.632998 -0.429823,0.211744 -0.910063,0.38499 -1.067199,0.38499 -0.157139,0 -0.285705,0.07463 -0.285705,0.165845 0,0.09121 -0.343028,0.361307 -0.762285,0.600206 -1.230907,0.701388 -3.569448,3.126419 -4.225353,4.381625 -0.331351,0.634106 -0.671062,1.153137 -0.754913,1.153401 -0.08385,2.03e-4 -0.152457,0.138937 -0.152457,0.308156 0,0.16922 -0.0857,0.466511 -0.190443,0.660648 -0.578795,1.072761 -1.024557,3.762153 -1.11982,6.756173 l -0.100254,3.15078 -1.784874,0.114491 c -0.981682,0.06297 -1.830612,0.0619 -1.886513,-0.0024 -0.212561,-0.244417 -1.535172,-0.100597 -1.763634,0.191775 -0.170607,0.218333 -0.244978,2.133121 -0.259717,6.686825 -0.01136,3.509487 -0.06642,6.454942 -0.122363,6.545457 -0.240992,0.389933 0.866721,0.59152 3.25037,0.59152 2.511828,0 2.554402,0.0076 2.559629,0.457371 0.0029,0.251554 6.09e-4,8.517894 -0.0052,18.369646 -0.0067,11.533065 0.06225,18.103605 0.193771,18.449515 l 0.20426,0.53725 8.592609,-0.053 8.592627,-0.053 z M 232.83868,109.4257 v -8.63924 l -8.81186,-0.10164 c -8.11584,-0.0936 -8.82631,-0.0746 -8.99497,0.24073 -0.20201,0.37771 -0.25781,16.40328 -0.0589,16.9216 0.1114,0.29032 1.03799,0.31821 8.99497,0.27072 l 8.87077,-0.0529 z m -0.10164,-25.869018 c 0.26499,-0.134343 0.29711,-1.236112 0.24534,-8.414872 -0.0357,-4.952508 -0.14035,-8.411186 -0.26126,-8.637111 -0.19146,-0.357776 -0.63544,-0.376821 -8.78484,-0.376821 -7.98143,0 -8.5989,0.02515 -8.8072,0.358709 -0.33201,0.53162 -0.38972,16.617188 -0.0609,16.966801 0.1885,0.200395 2.15072,0.257876 8.80324,0.257876 4.70838,0 8.6979,-0.06956 8.8656,-0.154582 z"/></g></g></svg>